<?xml version="1.0" encoding="UTF-8"?>
<svg version="1.1" xmlns="http://www.w3.org/2000/svg" width="500" height="403">
<path d="M0 0 C165 0 330 0 500 0 C500 132.99 500 265.98 500 403 C335 403 170 403 0 403 C0 270.01 0 137.02 0 0 Z " fill="#231E1F" transform="translate(0,0)"/>
<path d="M0 0 C1.51101146 -0.01173486 1.51101146 -0.01173486 3.05254841 -0.02370679 C4.71726075 -0.01366855 4.71726075 -0.01366855 6.41560364 -0.00342751 C7.59211329 -0.00810748 8.76862295 -0.01278745 9.98078442 -0.01760924 C13.25198117 -0.02752736 16.52284583 -0.02392745 19.79403448 -0.01465058 C23.31965274 -0.00787986 26.84522512 -0.01833146 30.37083435 -0.02659035 C37.27968169 -0.03995109 44.18843143 -0.03703957 51.09728265 -0.02835242 C56.71075255 -0.02158547 62.32419504 -0.02065487 67.93766785 -0.02392387 C68.73569925 -0.02438357 69.53373064 -0.02484327 70.35594481 -0.0253169 C71.97697903 -0.02627605 73.59801323 -0.02724869 75.21904743 -0.02823468 C90.43015186 -0.03679542 105.64120211 -0.02694371 120.85229766 -0.01083358 C133.91257068 0.00257023 146.97276371 0.00024233 160.03303528 -0.01358986 C175.18859964 -0.0296336 190.34411648 -0.03597139 205.49968815 -0.02675307 C207.11485862 -0.02579739 208.7300291 -0.02485428 210.34519958 -0.02392387 C211.53733457 -0.02322963 211.53733457 -0.02322963 212.75355309 -0.02252137 C218.36221815 -0.01992785 223.97085315 -0.02431024 229.57951355 -0.03136253 C236.41183716 -0.03976436 243.24405733 -0.03752527 250.07636905 -0.0215203 C253.56432843 -0.01361972 257.05211517 -0.01057615 260.54007339 -0.02046776 C264.31597817 -0.02861219 268.09139075 -0.01844734 271.86726379 -0.00342751 C272.97707202 -0.01011967 274.08688025 -0.01681184 275.23031902 -0.02370679 C276.23766 -0.01588355 277.24500097 -0.00806031 278.28286743 0 C279.15497769 0.00048706 280.02708796 0.00097411 280.9256258 0.00147593 C283.64677753 0.46328594 284.53446517 1.15872297 286.14143372 3.37752342 C286.43608479 5.97502481 286.54625198 8.33308519 286.52238464 10.93123436 C286.52706462 11.70755589 286.53174459 12.48387741 286.53656638 13.28372383 C286.54856269 15.89328752 286.53904124 18.50233054 286.52961731 21.11189842 C286.53368096 22.97937388 286.53902167 24.84684694 286.54554749 26.71431541 C286.5592515 31.79274933 286.55390972 36.87100089 286.54441023 41.9494381 C286.5368296 47.25717737 286.54385479 52.56490074 286.54856873 57.87264061 C286.55403094 66.78705723 286.54682245 75.70139935 286.532547 84.61580467 C286.51621961 94.9308564 286.52150779 105.24573025 286.53802621 115.56077766 C286.55162781 124.40753645 286.55356724 133.2542416 286.54571021 142.10100746 C286.54102639 147.38896921 286.54042827 152.67684728 286.55031967 157.9648037 C286.55896778 162.93555617 286.55300697 167.9060787 286.5356369 172.87680626 C286.53166051 174.70418477 286.53282571 176.53158255 286.5394249 178.35895348 C286.54758513 180.84750359 286.53738632 183.33531015 286.52238464 185.82381248 C286.52907681 186.55230778 286.53576897 187.28080307 286.54266393 188.03137398 C286.48544152 192.90253921 286.48544152 192.90253921 284.92149889 195.06193221 C282.58355647 196.78983327 281.17726713 196.75343038 278.28286743 196.75504684 C277.27552646 196.76287009 276.26818548 196.77069333 275.23031902 196.77875364 C273.56560668 196.76871539 273.56560668 196.76871539 271.86726379 196.75847435 C270.10249931 196.76549431 270.10249931 196.76549431 268.30208302 196.77265608 C265.03088626 196.78257421 261.7600216 196.77897429 258.48883295 196.76969743 C254.96321469 196.7629267 251.43764231 196.77337831 247.91203308 196.78163719 C241.00318574 196.79499793 234.094436 196.79208641 227.18558478 196.78339927 C221.57211488 196.77663231 215.95867239 196.77570171 210.34519958 196.77897072 C209.14815249 196.77966027 209.14815249 196.77966027 207.92692262 196.78036375 C206.30588841 196.78132289 204.6848542 196.78229553 203.06382 196.78328152 C187.85271557 196.79184227 172.64166532 196.78199056 157.43056977 196.76588042 C144.37029675 196.75247661 131.31010372 196.75480451 118.24983215 196.7686367 C103.09426779 196.78468044 87.93875095 196.79101823 72.78317928 196.78179991 C71.16800881 196.78084423 69.55283833 196.77990112 67.93766785 196.77897072 C66.74553286 196.77827648 66.74553286 196.77827648 65.52931434 196.77756821 C59.92064928 196.7749747 54.31201429 196.77935709 48.70335388 196.78640938 C41.87103027 196.7948112 35.0388101 196.79257212 28.20649838 196.77656715 C24.718539 196.76866656 21.23075226 196.765623 17.74279404 196.7755146 C13.96688926 196.78365904 10.19147668 196.77349418 6.41560364 196.75847435 C5.30579541 196.76516652 4.19598719 196.77185868 3.05254841 196.77875364 C2.04520743 196.7709304 1.03786646 196.76310715 0 196.75504684 C-0.87211026 196.75455979 -1.74422052 196.75407273 -2.64275837 196.75357091 C-5.36391009 196.2917609 -6.25159774 195.59632388 -7.85856628 193.37752342 C-8.15321736 190.78002203 -8.26338455 188.42196166 -8.23951721 185.82381248 C-8.24419718 185.04749096 -8.24887716 184.27116943 -8.25369895 183.47132301 C-8.26569526 180.86175932 -8.25617381 178.2527163 -8.24674988 175.64314842 C-8.25081353 173.77567296 -8.25615424 171.90819991 -8.26268005 170.04073143 C-8.27638407 164.96229751 -8.27104229 159.88404595 -8.2615428 154.80560875 C-8.25396216 149.49786948 -8.26098736 144.1901461 -8.26570129 138.88240623 C-8.27116351 129.96798961 -8.26395502 121.05364749 -8.24967957 112.13924217 C-8.23335218 101.82419045 -8.23864036 91.50931659 -8.25515878 81.19426918 C-8.26876038 72.34751039 -8.27069981 63.50080524 -8.26284277 54.65403938 C-8.25815896 49.36607763 -8.25756084 44.07819957 -8.26745224 38.79024315 C-8.27610035 33.81949067 -8.27013954 28.84896815 -8.25276947 23.87824059 C-8.24879307 22.05086207 -8.24995828 20.22346429 -8.25655746 18.39609337 C-8.2647177 15.90754325 -8.25451888 13.4197367 -8.23951721 10.93123436 C-8.24620938 10.20273907 -8.25290154 9.47424377 -8.2597965 8.72367287 C-8.20257409 3.85250763 -8.20257409 3.85250763 -6.63863146 1.69311464 C-4.30068903 -0.03478643 -2.8943997 0.00161647 0 0 Z " fill="#FEFEFE" transform="translate(110.85856628417969,196.6224765777588)"/>
<path d="M0 0 C165 0 330 0 500 0 C500 12.87 500 25.74 500 39 C335 39 170 39 0 39 C0 26.13 0 13.26 0 0 Z " fill="#F9F9F9" transform="translate(0,0)"/>
<path d="M0 0 C1.28110735 -0.01173486 1.28110735 -0.01173486 2.58809566 -0.02370679 C3.99600542 -0.01366855 3.99600542 -0.01366855 5.43235779 -0.00342751 C6.42919114 -0.00810748 7.42602449 -0.01278745 8.45306492 -0.01760924 C11.80884485 -0.02961972 15.16422097 -0.02007827 18.52000427 -0.01066017 C20.91949198 -0.01472318 23.31897781 -0.02006352 25.71846008 -0.02659035 C31.56851979 -0.03887649 37.41847379 -0.03704137 43.26853061 -0.02835242 C48.02197134 -0.02158387 52.77537969 -0.02065556 57.52882385 -0.02392387 C58.20473936 -0.02438357 58.88065486 -0.02484327 59.57705265 -0.0253169 C60.95005887 -0.02627605 62.32306507 -0.02724869 63.69607127 -0.02823468 C76.57803408 -0.03679424 89.45993289 -0.02694558 102.34188521 -0.01083358 C113.40096476 0.00257014 124.45994986 0.0002422 135.51902771 -0.01358986 C148.35413513 -0.0296357 161.18918643 -0.03597021 174.02430248 -0.02675307 C175.39232571 -0.0257974 176.76034895 -0.02485428 178.12837219 -0.02392387 C178.801508 -0.02346105 179.4746438 -0.02299822 180.16817766 -0.02252137 C184.91723161 -0.01992848 189.66625002 -0.02430889 194.41529846 -0.03136253 C200.8043175 -0.04064317 207.19319981 -0.03405847 213.58220291 -0.01667976 C215.93205085 -0.01270081 218.28191377 -0.01387286 220.63175583 -0.02046776 C223.82965585 -0.02861768 227.0269756 -0.01844096 230.22483826 -0.00342751 C231.16344476 -0.01011967 232.10205126 -0.01681184 233.06910038 -0.02370679 C233.92317195 -0.01588355 234.77724352 -0.00806031 235.65719604 0 C236.39564475 0.00048706 237.13409346 0.00097411 237.8949194 0.00147593 C240.43268254 0.4950013 241.30793179 1.30791688 242.82859802 3.37752342 C243.12670082 6.30009986 243.24741919 8.96098126 243.20359802 11.87752342 C243.21519958 12.64967186 243.22680115 13.4218203 243.23875427 14.21736717 C243.2094205 19.85922909 243.2094205 19.85922909 241.5644083 22.09806883 C239.42238346 23.67694156 238.30091054 23.75330314 235.65719604 23.75504684 C234.37608869 23.76678171 234.37608869 23.76678171 233.06910038 23.77875364 C232.13049388 23.77206147 231.19188738 23.76536931 230.22483826 23.75847435 C228.72958823 23.76549431 228.72958823 23.76549431 227.20413113 23.77265608 C223.84835119 23.78466656 220.49297508 23.77512511 217.13719177 23.76570702 C214.73770407 23.76977002 212.33821823 23.77511037 209.93873596 23.78163719 C204.08867625 23.79392333 198.23872225 23.79208822 192.38866544 23.78339927 C187.63522471 23.77663072 182.88181635 23.7757024 178.12837219 23.77897072 C177.45245669 23.77943042 176.77654118 23.77989012 176.08014339 23.78036375 C174.70713718 23.7813229 173.33413097 23.78229554 171.96112478 23.78328152 C159.07916197 23.79184108 146.19726315 23.78199243 133.31531084 23.76588042 C122.25623128 23.75247671 111.19724619 23.75480464 100.13816833 23.7686367 C87.30306091 23.78468255 74.46800961 23.79101706 61.63289356 23.78179991 C60.26487033 23.78084424 58.8968471 23.77990113 57.52882385 23.77897072 C56.85568805 23.77850789 56.18255224 23.77804507 55.48901838 23.77756821 C50.73996444 23.77497533 45.99094602 23.77935573 41.24189758 23.78640938 C34.85287855 23.79569002 28.46399624 23.78910532 22.07499313 23.77172661 C19.72514519 23.76774766 17.37528227 23.76891971 15.02544022 23.7755146 C11.82754019 23.78366453 8.63022044 23.7734878 5.43235779 23.75847435 C4.02444804 23.7685126 4.02444804 23.7685126 2.58809566 23.77875364 C1.7340241 23.7709304 0.87995253 23.76310715 0 23.75504684 C-0.73844871 23.75455979 -1.47689741 23.75407273 -2.23772335 23.75357091 C-4.77548649 23.26004554 -5.65073574 22.44712996 -7.17140198 20.37752342 C-7.46950477 17.45494699 -7.59022315 14.79406559 -7.54640198 11.87752342 C-7.55800354 11.10537498 -7.5696051 10.33322655 -7.58155823 9.53767967 C-7.55222446 3.89581776 -7.55222446 3.89581776 -5.90721226 1.65697801 C-3.76518741 0.07810528 -2.64371449 0.00174371 0 0 Z " fill="#1F1F1F" transform="translate(132.17140197753906,343.6224765777588)"/>
<path d="M0 0 C82.5 0 165 0 250 0 C250 6.93 250 13.86 250 21 C248.03400201 22.96599799 245.00246619 22.12585371 242.38464832 22.13374341 C241.42328811 22.13151268 240.46192789 22.12928196 239.47143555 22.12698364 C238.4585657 22.12854363 237.44569586 22.13010362 236.40213299 22.13171089 C232.9803138 22.13572564 229.55853833 22.13252941 226.13671875 22.12939453 C223.69487482 22.13074836 221.25303108 22.13252819 218.81118774 22.13470459 C212.85059589 22.13880499 206.89002144 22.13818562 200.92943025 22.13529195 C196.08726031 22.1330381 191.2450939 22.13272531 186.40292358 22.13381577 C185.37112552 22.13404561 185.37112552 22.13404561 184.31848305 22.13428011 C182.92131432 22.13459982 181.52414558 22.13492403 180.12697685 22.1352527 C167.01047424 22.13810763 153.89397861 22.13482027 140.77747715 22.12945233 C129.51082762 22.12498428 118.2441884 22.12576021 106.97753906 22.13037109 C93.90955466 22.13571663 80.84157638 22.13783294 67.77359104 22.13475883 C66.3814195 22.13444026 64.98924796 22.13412589 63.59707642 22.13381577 C62.91201277 22.13366149 62.22694912 22.13350721 61.52112597 22.13334826 C56.68200038 22.13248305 51.84287866 22.13394609 47.00375366 22.13629532 C40.49662074 22.13938472 33.98950435 22.13720083 27.48237228 22.13140106 C25.08653165 22.13007274 22.69068939 22.13046879 20.2948494 22.13266373 C17.03939845 22.1353724 13.78401127 22.13199758 10.52856445 22.12698364 C9.56720424 22.12921436 8.60584402 22.13144509 7.61535168 22.13374341 C1.1141498 22.1141498 1.1141498 22.1141498 0 21 C0 14.07 0 7.14 0 0 Z " fill="#F0F0F2" transform="translate(125,314)"/>
<path d="M0 0 C0.96136022 0.00223072 1.92272043 0.00446144 2.91321278 0.00675976 C4.43251754 0.00441978 4.43251754 0.00441978 5.98251534 0.00203252 C9.40433453 -0.00198224 12.82610999 0.001214 16.24792957 0.00434887 C18.68977351 0.00299504 21.13161724 0.00121522 23.57346058 -0.00096118 C29.53405244 -0.00506158 35.49462689 -0.00444221 41.45521808 -0.00154854 C46.29738802 0.00070531 51.13955443 0.00101809 55.98172474 -0.00007236 C56.66959011 -0.00022559 57.35745549 -0.00037883 58.06616527 -0.0005367 C59.46333401 -0.00085641 60.86050274 -0.00118062 62.25767148 -0.00150929 C75.37417408 -0.00436422 88.49066971 -0.00107686 101.60717118 0.00429107 C112.8738207 0.00875912 124.14045992 0.00798319 135.40710926 0.00337231 C148.47509366 -0.00197323 161.54307194 -0.00408953 174.61105728 -0.00101542 C176.00322882 -0.00069686 177.39540036 -0.00038249 178.78757191 -0.00007236 C179.47263555 0.00008192 180.1576992 0.00023619 180.86352235 0.00039514 C185.70264794 0.00126036 190.54176967 -0.00020268 195.38089466 -0.00255191 C201.88802758 -0.00564132 208.39514397 -0.00345742 214.90227604 0.00234234 C217.29811667 0.00367067 219.69395893 0.00327461 222.08979893 0.00107968 C225.34524987 -0.001629 228.60063706 0.00174582 231.85608387 0.00675976 C232.81744409 0.00452904 233.7788043 0.00229832 234.76929665 0 C241.27049852 0.0195936 241.27049852 0.0195936 242.38464832 1.13374341 C242.38464832 8.06374341 242.38464832 14.99374341 242.38464832 22.13374341 C159.88464832 22.13374341 77.38464832 22.13374341 -7.61535168 22.13374341 C-7.61535168 0.02295148 -7.61535168 0.02295148 0 0 Z " fill="#F2F2F3" transform="translate(132.61535167694092,231.8662565946579)"/>
<path d="M0 0 C0.96136022 0.00223072 1.92272043 0.00446144 2.91321278 0.00675976 C4.43251754 0.00441978 4.43251754 0.00441978 5.98251534 0.00203252 C9.40433453 -0.00198224 12.82610999 0.001214 16.24792957 0.00434887 C18.68977351 0.00299504 21.13161724 0.00121522 23.57346058 -0.00096118 C29.53405244 -0.00506158 35.49462689 -0.00444221 41.45521808 -0.00154854 C46.29738802 0.00070531 51.13955443 0.00101809 55.98172474 -0.00007236 C56.66959011 -0.00022559 57.35745549 -0.00037883 58.06616527 -0.0005367 C59.46333401 -0.00085641 60.86050274 -0.00118062 62.25767148 -0.00150929 C75.37417408 -0.00436422 88.49066971 -0.00107686 101.60717118 0.00429107 C112.8738207 0.00875912 124.14045992 0.00798319 135.40710926 0.00337231 C148.47509366 -0.00197323 161.54307194 -0.00408953 174.61105728 -0.00101542 C176.00322882 -0.00069686 177.39540036 -0.00038249 178.78757191 -0.00007236 C179.47263555 0.00008192 180.1576992 0.00023619 180.86352235 0.00039514 C185.70264794 0.00126036 190.54176967 -0.00020268 195.38089466 -0.00255191 C201.88802758 -0.00564132 208.39514397 -0.00345742 214.90227604 0.00234234 C217.29811667 0.00367067 219.69395893 0.00327461 222.08979893 0.00107968 C225.34524987 -0.001629 228.60063706 0.00174582 231.85608387 0.00675976 C232.81744409 0.00452904 233.7788043 0.00229832 234.76929665 0 C241.27049852 0.0195936 241.27049852 0.0195936 242.38464832 1.13374341 C242.48345629 2.61027005 242.51544078 4.09141576 242.51746082 5.57124341 C242.51874989 6.46585278 242.52003895 7.36046216 242.52136707 8.28218091 C242.51749989 9.22319653 242.5136327 10.16421216 242.50964832 11.13374341 C242.51351551 12.07475903 242.5173827 13.01577466 242.52136707 13.98530591 C242.51943348 15.32721997 242.51943348 15.32721997 242.51746082 16.69624341 C242.51633289 17.52253247 242.51520496 18.34882153 242.51404285 19.20014966 C242.38464832 21.13374341 242.38464832 21.13374341 241.38464832 22.13374341 C238.20141283 22.23405536 235.039792 22.26811446 231.85608387 22.26072705 C230.84321403 22.26228704 229.83034418 22.26384703 228.78678131 22.26545429 C225.36496212 22.26946905 221.94318666 22.26627281 218.52136707 22.26313794 C216.07952314 22.26449177 213.63767941 22.26627159 211.19583607 22.268448 C205.23524421 22.27254839 199.27466976 22.27192902 193.31407857 22.26903535 C188.47190863 22.2667815 183.62974222 22.26646872 178.78757191 22.26755917 C177.75577385 22.26778902 177.75577385 22.26778902 176.70313138 22.26802351 C175.30596264 22.26834322 173.90879391 22.26866744 172.51162517 22.2689961 C159.39512256 22.27185103 146.27862693 22.26856367 133.16212547 22.26319574 C121.89547594 22.25872769 110.62883672 22.25950362 99.36218739 22.2641145 C86.29420298 22.26946004 73.22622471 22.27157634 60.15823936 22.26850224 C58.76606782 22.26818367 57.37389628 22.2678693 55.98172474 22.26755917 C55.29666109 22.2674049 54.61159745 22.26725062 53.9057743 22.26709167 C49.0666487 22.26622645 44.22752698 22.26768949 39.38840199 22.27003872 C32.88126907 22.27312813 26.37415267 22.27094424 19.86702061 22.26514447 C17.47117998 22.26381614 15.07533771 22.2642122 12.67949772 22.26640713 C9.42404678 22.26911581 6.16865959 22.26574099 2.91321278 22.26072705 C1.95185256 22.26295777 0.99049234 22.26518849 0 22.26748681 C-6.50120187 22.24789321 -6.50120187 22.24789321 -7.61535168 21.13374341 C-7.71415965 19.65721677 -7.74614413 18.17607105 -7.74816418 16.69624341 C-7.74945324 15.80163403 -7.7507423 14.90702466 -7.75207043 13.98530591 C-7.74626965 12.57378247 -7.74626965 12.57378247 -7.74035168 11.13374341 C-7.74421886 10.19272778 -7.74808605 9.25171216 -7.75207043 8.28218091 C-7.75078136 7.38757153 -7.7494923 6.49296216 -7.74816418 5.57124341 C-7.74647228 4.33180981 -7.74647228 4.33180981 -7.74474621 3.06733716 C-7.44549686 -1.40446447 -3.61879004 0.01090647 0 0 Z " fill="#F0F0F2" transform="translate(132.61535167694092,272.8662565946579)"/>
<path d="M0 0 C0 2.64 0 5.28 0 8 C0.66 8 1.32 8 2 8 C2.33 6.68 2.66 5.36 3 4 C3 5.32 3 6.64 3 8 C3.66 8 4.32 8 5 8 C4.65555119 5.52733235 4.65555119 5.52733235 4 3 C3.34 2.67 2.68 2.34 2 2 C2.33 1.34 2.66 0.68 3 0 C3.99 0.66 4.98 1.32 6 2 C6.1875 5.125 6.1875 5.125 6 8 C8.31 8 10.62 8 13 8 C13 6.68 13 5.36 13 4 C13.66 4 14.32 4 15 4 C15 5.32 15 6.64 15 8 C15.61875 7.814375 16.2375 7.62875 16.875 7.4375 C19 7 19 7 21 8 C21.94875 7.835 22.8975 7.67 23.875 7.5 C26.77618942 7.03580969 28.28219244 7.05922046 31 8 C31 6.35 31 4.7 31 3 C32.32 3.33 33.64 3.66 35 4 C35 5.32 35 6.64 35 8 C35.66 8 36.32 8 37 8 C36.938125 7.236875 36.87625 6.47375 36.8125 5.6875 C37 3 37 3 38.5 1.1875 C38.995 0.795625 39.49 0.40375 40 0 C40 2.64 40 5.28 40 8 C41.65 8 43.3 8 45 8 C45.33 7.34 45.66 6.68 46 6 C47.65 6.66 49.3 7.32 51 8 C51.66 6.35 52.32 4.7 53 3 C53.2475 3.639375 53.495 4.27875 53.75 4.9375 C54.81562433 7.18741541 54.81562433 7.18741541 57.125 7.75 C57.74375 7.8325 58.3625 7.915 59 8 C59 7.34 59 6.68 59 6 C58.01 6 57.02 6 56 6 C56 5.34 56 4.68 56 4 C57.32 4.33 58.64 4.66 60 5 C60 5.99 60 6.98 60 8 C62.31 8 64.62 8 67 8 C67 5.36 67 2.72 67 0 C68.65 0.33 70.3 0.66 72 1 C71.01 1.66 70.02 2.32 69 3 C68.27034634 5.56282742 68.27034634 5.56282742 68 8 C68.9075 7.814375 69.815 7.62875 70.75 7.4375 C73.68314324 7.04265379 75.2644657 7.05308428 78 8 C78 6.02 78 4.04 78 2 C77.01 1.505 77.01 1.505 76 1 C76.99 0.67 77.98 0.34 79 0 C79 2.64 79 5.28 79 8 C81.31 8 83.62 8 86 8 C86 6.35 86 4.7 86 3 C86.33 3 86.66 3 87 3 C87 4.65 87 6.3 87 8 C89.31 8 91.62 8 94 8 C94.33 7.01 94.66 6.02 95 5 C95.495 5.99 95.495 5.99 96 7 C98.32156597 7.40729228 100.6568787 7.74438677 103 8 C103 7.34 103 6.68 103 6 C102.34 6 101.68 6 101 6 C101 4.02 101 2.04 101 0 C102.98 0.99 102.98 0.99 105 2 C105.33 1.34 105.66 0.68 106 0 C106 0.66 106 1.32 106 2 C108.31 2 110.62 2 113 2 C113.33 2.66 113.66 3.32 114 4 C114.66 4 115.32 4 116 4 C116 5.32 116 6.64 116 8 C116.66 8 117.32 8 118 8 C118.33 7.34 118.66 6.68 119 6 C119 6.66 119 7.32 119 8 C120.32 8 121.64 8 123 8 C123.33 7.01 123.66 6.02 124 5 C124 5.99 124 6.98 124 8 C124.66 8 125.32 8 126 8 C126 6.68 126 5.36 126 4 C126.66 3.67 127.32 3.34 128 3 C126.02 2.01 126.02 2.01 124 1 C127.04386724 0.91773332 129.07175348 1.02391783 132 2 C132.33 3.65 132.66 5.3 133 7 C133.69867188 6.98839844 134.39734375 6.97679687 135.1171875 6.96484375 C136.48230469 6.95130859 136.48230469 6.95130859 137.875 6.9375 C138.77992188 6.92589844 139.68484375 6.91429687 140.6171875 6.90234375 C143 7 143 7 145 8 C145 5.36 145 2.72 145 0 C146.65 0.33 148.3 0.66 150 1 C148.68 1.33 147.36 1.66 146 2 C146.33 2.66 146.66 3.32 147 4 C147.66 4 148.32 4 149 4 C149 5.32 149 6.64 149 8 C150.32 7.67 151.64 7.34 153 7 C152.67 7.99 152.34 8.98 152 10 C153.65 9.67 155.3 9.34 157 9 C157 9.66 157 10.32 157 11 C156.01 11.66 155.02 12.32 154 13 C153.2575 14.051875 153.2575 14.051875 152.5 15.125 C151.7575 16.053125 151.7575 16.053125 151 17 C150.01 17 149.02 17 148 17 C148 18.98 148 20.96 148 23 C145 22 145 22 143 21 C143 20.01 143 19.02 143 18 C143.99 17.505 143.99 17.505 145 17 C141.72226496 17.75150023 141.72226496 17.75150023 140 21 C139.34 21 138.68 21 138 21 C137.67 19.35 137.34 17.7 137 16 C135.02 15.505 135.02 15.505 133 15 C132.67 15.66 132.34 16.32 132 17 C130.35 16.34 128.7 15.68 127 15 C126.67 15.66 126.34 16.32 126 17 C124.35 16.34 122.7 15.68 121 15 C121 15.66 121 16.32 121 17 C121.99 16.67 122.98 16.34 124 16 C122.71107323 18.87529818 121.50703617 21.05008298 119 23 C116.3125 23.6875 116.3125 23.6875 114 24 C114.99 23.505 114.99 23.505 116 23 C116 21.35 116 19.7 116 18 C116.66 18 117.32 18 118 18 C118 17.34 118 16.68 118 16 C116.68 16 115.36 16 114 16 C113.67 16.66 113.34 17.32 113 18 C111.02 17.34 109.04 16.68 107 16 C106.67 16.99 106.34 17.98 106 19 C105.67 18.01 105.34 17.02 105 16 C104.34 16.33 103.68 16.66 103 17 C100.6670134 17.04022391 98.33293334 17.04320247 96 17 C96.495 18.485 96.495 18.485 97 20 C96.34 20.66 95.68 21.32 95 22 C94.896875 21.360625 94.79375 20.72125 94.6875 20.0625 C94.460625 19.381875 94.23375 18.70125 94 18 C92.515 17.505 92.515 17.505 91 17 C91 16.34 91 15.68 91 15 C89.329375 15.2475 89.329375 15.2475 87.625 15.5 C84 16 84 16 82 16 C81.505 17.485 81.505 17.485 81 19 C81 18.34 81 17.68 81 17 C79.515 17.495 79.515 17.495 78 18 C77.34 17.67 76.68 17.34 76 17 C75.505 18.485 75.505 18.485 75 20 C74.01 21.485 74.01 21.485 73 23 C73 21.02 73 19.04 73 17 C72.34 17 71.68 17 71 17 C71 18.32 71 19.64 71 21 C69.0625 20.6875 69.0625 20.6875 67 20 C66.505 18.515 66.505 18.515 66 17 C64.515 16.505 64.515 16.505 63 16 C62.67 16.66 62.34 17.32 62 18 C61.34 17.67 60.68 17.34 60 17 C59.67 17.66 59.34 18.32 59 19 C58.505 19.495 58.505 19.495 58 20 C57.505 21.485 57.505 21.485 57 23 C55.10646634 21.10646634 53.5801368 19.15473199 52 17 C51.401875 17.185625 50.80375 17.37125 50.1875 17.5625 C48 18 48 18 45 17 C44.505 18.485 44.505 18.485 44 20 C43.505 18.515 43.505 18.515 43 17 C42.34 17 41.68 17 41 17 C40.67 18.98 40.34 20.96 40 23 C41.98 23.495 41.98 23.495 44 24 C41.36 24 38.72 24 36 24 C36.99 23.505 36.99 23.505 38 23 C38 22.34 38 21.68 38 21 C37.01 21 36.02 21 35 21 C35 20.01 35 19.02 35 18 C35.99 18 36.98 18 38 18 C38 17.34 38 16.68 38 16 C37.39671875 16.08378906 36.7934375 16.16757813 36.171875 16.25390625 C34.97304687 16.40666016 34.97304687 16.40666016 33.75 16.5625 C32.96109375 16.66691406 32.1721875 16.77132812 31.359375 16.87890625 C28.99467126 17.00027349 27.2488963 16.69633257 25 16 C24.67 16.66 24.34 17.32 24 18 C19.91621923 18 16.87684087 17.19287411 13 16 C12.67 17.98 12.34 19.96 12 22 C11.67 22 11.34 22 11 22 C11 19.69 11 17.38 11 15 C10.34 15 9.68 15 9 15 C9 17.64 9 20.28 9 23 C9.66 23.33 10.32 23.66 11 24 C9.68 23.67 8.36 23.34 7 23 C7.33 20.36 7.66 17.72 8 15 C6.68 15 5.36 15 4 15 C3.67 15.99 3.34 16.98 3 18 C-1 18 -1 18 -4 17 C-4.33 17.66 -4.66 18.32 -5 19 C-5 18.34 -5 17.68 -5 17 C-5.66 17 -6.32 17 -7 17 C-7.33 17.66 -7.66 18.32 -8 19 C-8 18.34 -8 17.68 -8 17 C-8.66 17 -9.32 17 -10 17 C-9.67 18.65 -9.34 20.3 -9 22 C-9.66 21.67 -10.32 21.34 -11 21 C-11.66 21.99 -12.32 22.98 -13 24 C-13 23.01 -13 22.02 -13 21 C-13.66 21 -14.32 21 -15 21 C-15 21.99 -15 22.98 -15 24 C-15.66 23.67 -16.32 23.34 -17 23 C-17 21.02 -17 19.04 -17 17 C-18.2375 17.0825 -19.475 17.165 -20.75 17.25 C-24.10506698 17.2737948 -24.75447904 17.19641677 -27.5 15 C-27.995 14.34 -28.49 13.68 -29 13 C-28.34 12.67 -27.68 12.34 -27 12 C-27.33 11.34 -27.66 10.68 -28 10 C-27.34 10 -26.68 10 -26 10 C-25.67 8.68 -25.34 7.36 -25 6 C-19.99109914 6.61512818 -14.99367864 7.2717552 -10 8 C-9.67 6.68 -9.34 5.36 -9 4 C-8.67 4.99 -8.34 5.98 -8 7 C-8 5.35 -8 3.7 -8 2 C-7.34 2.33 -6.68 2.66 -6 3 C-5.375 5.0625 -5.375 5.0625 -5 7 C-3.68 7.33 -2.36 7.66 -1 8 C-1 7.34 -1 6.68 -1 6 C-1.99 6 -2.98 6 -4 6 C-4 5.34 -4 4.68 -4 4 C-3.01 4 -2.02 4 -1 4 C-1 3.34 -1 2.68 -1 2 C-2.32 1.67 -3.64 1.34 -5 1 C-1.125 0 -1.125 0 0 0 Z " fill="#191818" transform="translate(211,131)"/>
<path d="M0 0 C0.99 0 1.98 0 3 0 C3 0.66 3 1.32 3 2 C3.99 2 4.98 2 6 2 C6 6.95 6 11.9 6 17 C1.1883313 17 -3.4161649 16.99572313 -8.1875 16.5 C-9.08855469 16.4071875 -9.98960937 16.314375 -10.91796875 16.21875 C-11.60503906 16.1465625 -12.29210937 16.074375 -13 16 C-13.33 14.68 -13.66 13.36 -14 12 C-11.69 12.33 -9.38 12.66 -7 13 C-7.8971875 12.566875 -7.8971875 12.566875 -8.8125 12.125 C-11 11 -11 11 -14 9 C-13.25 4.25 -13.25 4.25 -11 2 C-8.04049371 1.62057612 -6.59874691 1.54577821 -4.1875 3.375 C-3 5 -3 5 -3 7 C-5.31 6.67 -7.62 6.34 -10 6 C-9.401875 6.28875 -8.80375 6.5775 -8.1875 6.875 C-6 8 -6 8 -3 10 C-3 11.32 -3 12.64 -3 14 C-2.34 14 -1.68 14 -1 14 C-1.33 10.37 -1.66 6.74 -2 3 C-1.34 3 -0.68 3 0 3 C0 2.01 0 1.02 0 0 Z " fill="#3B3B3B" transform="translate(225,78)"/>
<path d="M0 0 C2.125 0.9375 2.125 0.9375 4 2 C3.360625 2.103125 2.72125 2.20625 2.0625 2.3125 C1.381875 2.539375 0.70125 2.76625 0 3 C-0.33 3.99 -0.66 4.98 -1 6 C-0.0925 5.505 0.815 5.01 1.75 4.5 C5 3 5 3 9 3 C9.33 2.34 9.66 1.68 10 1 C10.66 1 11.32 1 12 1 C12.33 1.66 12.66 2.32 13 3 C13.99 2.649375 14.98 2.29875 16 1.9375 C20.26365913 0.69066308 23.66160688 1.2388784 28 2 C28 1.34 28 0.68 28 0 C29.0725 0.33 30.145 0.66 31.25 1 C34.99731601 2.1717751 34.99731601 2.1717751 39 2 C38.34 4.31 37.68 6.62 37 9 C36.01 9 35.02 9 34 9 C34 8.01 34 7.02 34 6 C33.67 6.66 33.34 7.32 33 8 C31.35 8 29.7 8 28 8 C28 6.68 28 5.36 28 4 C27.34 4 26.68 4 26 4 C26 5.32 26 6.64 26 8 C23.69 8 21.38 8 19 8 C19 7.34 19 6.68 19 6 C19.99 6 20.98 6 22 6 C22 5.34 22 4.68 22 4 C20.576875 4.2784375 20.576875 4.2784375 19.125 4.5625 C16 5 16 5 14 4 C14 4.99 14 5.98 14 7 C14.99 6.67 15.98 6.34 17 6 C17 6.66 17 7.32 17 8 C14.04142591 8.05379226 11.08382279 8.09357093 8.125 8.125 C6.86236328 8.15013672 6.86236328 8.15013672 5.57421875 8.17578125 C4.76855469 8.18222656 3.96289062 8.18867188 3.1328125 8.1953125 C2.38918457 8.20578613 1.64555664 8.21625977 0.87939453 8.22705078 C-1 8 -1 8 -3 6 C-2.75 3.4375 -2.75 3.4375 -2 1 C-1.34 0.67 -0.68 0.34 0 0 Z " fill="#C5C5C5" transform="translate(219,351)"/>
<path d="M0 0 C1.875 0.25 1.875 0.25 4 1 C5.25 3.0625 5.25 3.0625 6 5 C6.66 3.68 7.32 2.36 8 1 C9.32 1 10.64 1 12 1 C12.66 2.32 13.32 3.64 14 5 C14.33 3.68 14.66 2.36 15 1 C16.32 1 17.64 1 19 1 C18.68991116 2.60463449 18.37683713 4.20869231 18.0625 5.8125 C17.80146484 7.15248047 17.80146484 7.15248047 17.53515625 8.51953125 C17 11 17 11 16 14 C14.35 13.67 12.7 13.34 11 13 C10.67 11.68 10.34 10.36 10 9 C9.566875 9.825 9.13375 10.65 8.6875 11.5 C7.8521875 12.7375 7.8521875 12.7375 7 14 C6.01 14 5.02 14 4 14 C1.77343836 9.25645564 0.53851968 5.27749285 0 0 Z " fill="#D5D5D5" transform="translate(267,80)"/>
<path d="M0 0 C2.32421875 0.10546875 2.32421875 0.10546875 5 1 C6.58203125 3.80078125 6.58203125 3.80078125 7.8125 7.3125 C8.23144531 8.46363281 8.65039062 9.61476563 9.08203125 10.80078125 C10 14 10 14 10 18 C9.01 18 8.02 18 7 18 C6.67 16.68 6.34 15.36 6 14 C3.69 14.33 1.38 14.66 -1 15 C-1.33 15.99 -1.66 16.98 -2 18 C-2.99 18 -3.98 18 -5 18 C-4.42934122 11.58008874 -2.32655091 5.98410537 0 0 Z " fill="#E5E5E5" transform="translate(199,76)"/>
<path d="M0 0 C2.40346379 2.40346379 2.32083747 3.13900195 2.375 6.4375 C2.26642418 10.65159915 2.26642418 10.65159915 0.375 13.125 C-2.82839724 14.30519898 -4.75806109 13.98667706 -8 13 C-10.51814379 9.22278431 -10.73797399 6.43706862 -10 2 C-7.05579372 -1.7368772 -4.33155649 -1.22413553 0 0 Z " fill="#DBDBDB" transform="translate(251,81)"/>
<path d="M0 0 C0 0.66 0 1.32 0 2 C0.495 1.855625 0.99 1.71125 1.5 1.5625 C10.56716418 -0.47761194 10.56716418 -0.47761194 15 1 C15 1.66 15 2.32 15 3 C16.32 2.67 17.64 2.34 19 2 C18.01 4.31 17.02 6.62 16 9 C15.34 8.67 14.68 8.34 14 8 C14 6.35 14 4.7 14 3 C13.34 3 12.68 3 12 3 C12.33 4.32 12.66 5.64 13 7 C11.35 7 9.7 7 8 7 C8 5.68 8 4.36 8 3 C7.34 3 6.68 3 6 3 C6 4.32 6 5.64 6 7 C-2.42857143 8.28571429 -2.42857143 8.28571429 -7 7 C-7 5.35 -7 3.7 -7 2 C-2.25 0 -2.25 0 0 0 Z " fill="#858585" transform="translate(373,146)"/>
<path d="M0 0 C0.66 0 1.32 0 2 0 C2.33 0.66 2.66 1.32 3 2 C6.3 2 9.6 2 13 2 C13 4.31 13 6.62 13 9 C11.68 9.33 10.36 9.66 9 10 C8.34 9.01 7.68 8.02 7 7 C6.2575 7.165 5.515 7.33 4.75 7.5 C0.46394697 8.27928237 -2.25498666 8.14000762 -6 6 C-5.67 4.68 -5.34 3.36 -5 2 C-3.68 2 -2.36 2 -1 2 C-0.67 1.34 -0.34 0.68 0 0 Z " fill="#A4A4A4" transform="translate(221,117)"/>
<path d="M0 0 C1.32 0 2.64 0 4 0 C4 0.66 4 1.32 4 2 C3.67 2.33 3.34 2.66 3 3 C3.33 3.33 3.66 3.66 4 4 C4.33 3.01 4.66 2.02 5 1 C5.66 1 6.32 1 7 1 C7.33 2.32 7.66 3.64 8 5 C8.33 4.01 8.66 3.02 9 2 C12.3 1.67 15.6 1.34 19 1 C19.33 1.66 19.66 2.32 20 3 C19.67 3.99 19.34 4.98 19 6 C19.66 6 20.32 6 21 6 C21 6.66 21 7.32 21 8 C15.63322975 9.00626942 11.39885218 8.80982783 6 8 C5.01 8 4.02 8 3 8 C2.01 8 1.02 8 0 8 C0 5.33333333 0 2.66666667 0 0 Z " fill="#B3B3B3" transform="translate(269,117)"/>
<path d="M0 0 C1.32 0.33 2.64 0.66 4 1 C4.845625 0.79375 5.69125 0.5875 6.5625 0.375 C9 0 9 0 10.640625 1.12109375 C12.5194504 3.71797598 12.29931895 5.51929641 12.1875 8.6875 C12.16042969 9.68136719 12.13335937 10.67523438 12.10546875 11.69921875 C12.07066406 12.45847656 12.03585937 13.21773437 12 14 C10.68 14 9.36 14 8 14 C7.67 10.7 7.34 7.4 7 4 C6.01 4.33 5.02 4.66 4 5 C3.67 7.97 3.34 10.94 3 14 C2.01 14 1.02 14 0 14 C0 9.38 0 4.76 0 0 Z " fill="#D6D6D6" transform="translate(294,80)"/>
<path d="M0 0 C1.32 0 2.64 0 4 0 C4 1.65 4 3.3 4 5 C3.34 5 2.68 5 2 5 C1.731875 5.598125 1.46375 6.19625 1.1875 6.8125 C0 9 0 9 -1.5625 10.4375 C-3.45263121 12.49199044 -3.6324247 14.27994277 -4 17 C-4.66 17 -5.32 17 -6 17 C-6 15.02 -6 13.04 -6 11 C-7.95894361 11.11306697 -7.95894361 11.11306697 -10 12 C-10.309375 12.804375 -10.61875 13.60875 -10.9375 14.4375 C-12 17 -12 17 -14.625 18.3125 C-15.800625 18.6528125 -15.800625 18.6528125 -17 19 C-17 18.01 -17 17.02 -17 16 C-17.66 15.67 -18.32 15.34 -19 15 C-14.8004541 12.37528381 -10.44365551 10.17220877 -6 8 C-6.99 6.68 -7.98 5.36 -9 4 C-8.4225 4.33 -7.845 4.66 -7.25 5 C-4.80116138 6.27075898 -4.80116138 6.27075898 -1 6 C-1.020625 5.195625 -1.04125 4.39125 -1.0625 3.5625 C-1 1 -1 1 0 0 Z " fill="#CDCDCD" transform="translate(36,9)"/>
<path d="M0 0 C1 1 1 1 1.09765625 3.28515625 C1.08605469 4.20167969 1.07445312 5.11820312 1.0625 6.0625 C1.05347656 6.98160156 1.04445313 7.90070313 1.03515625 8.84765625 C1.02355469 9.55792969 1.01195312 10.26820313 1 11 C-0.47906892 11.02689216 -1.95827483 11.04634621 -3.4375 11.0625 C-4.67306641 11.07990234 -4.67306641 11.07990234 -5.93359375 11.09765625 C-8 11 -8 11 -9 10 C-9.07179964 8.48071962 -9.08392007 6.95832518 -9.0625 5.4375 C-9.05347656 4.61121094 -9.04445313 3.78492188 -9.03515625 2.93359375 C-9.02355469 2.29550781 -9.01195312 1.65742188 -9 1 C-6.01787087 -0.49106457 -3.28390342 -0.11941467 0 0 Z " fill="#B1B1B3" transform="translate(367,319)"/>
<path d="M0 0 C1.32 0 2.64 0 4 0 C3.67 0.66 3.34 1.32 3 2 C2.34 1.67 1.68 1.34 1 1 C1 1.99 1 2.98 1 4 C1.99 3.67 2.98 3.34 4 3 C3.67 3.99 3.34 4.98 3 6 C-1.62 6 -6.24 6 -11 6 C-11 4.35 -11 2.7 -11 1 C-11.66 1 -12.32 1 -13 1 C-13.33 2.32 -13.66 3.64 -14 5 C-14 3.68 -14 2.36 -14 1 C-14.66 1 -15.32 1 -16 1 C-16.33 2.32 -16.66 3.64 -17 5 C-17 3.02 -17 1.04 -17 -1 C-14 -1 -11 -1 -8 -1 C-7.175 -1.20625 -6.35 -1.4125 -5.5 -1.625 C-3 -2 -3 -2 0 0 Z " fill="#B9B6B6" transform="translate(126,148)"/>
<path d="M0 0 C2.5625 0.3125 2.5625 0.3125 4.375 1.6875 C5.5625 3.3125 5.5625 3.3125 5.5625 5.3125 C3.2525 4.9825 0.9425 4.6525 -1.4375 4.3125 C-0.839375 4.60125 -0.24125 4.89 0.375 5.1875 C2.5625 6.3125 2.5625 6.3125 5.5625 8.3125 C4.6875 13.1875 4.6875 13.1875 3.5625 14.3125 C0.89191149 14.45365161 -1.76182238 14.35497107 -4.4375 14.3125 C-4.7675 12.9925 -5.0975 11.6725 -5.4375 10.3125 C-3.1275 10.6425 -0.8175 10.9725 1.5625 11.3125 C0.6653125 10.879375 0.6653125 10.879375 -0.25 10.4375 C-2.4375 9.3125 -2.4375 9.3125 -5.4375 7.3125 C-4.3713843 0.56043388 -4.3713843 0.56043388 0 0 Z " fill="#E5E5E5" transform="translate(216.4375,79.6875)"/>
<path d="M0 0 C5.66666667 0 11.33333333 0 17 0 C17 0.66 17 1.32 17 2 C16.01 2 15.02 2 14 2 C14 2.99 14 3.98 14 5 C14.99 5.33 15.98 5.66 17 6 C16.01 6 15.02 6 14 6 C14 6.66 14 7.32 14 8 C12.4221875 7.505 12.4221875 7.505 10.8125 7 C7.61126643 6.16033218 5.2588992 5.80249096 2 6 C2 4.68 2 3.36 2 2 C1.34 2 0.68 2 0 2 C0 2.66 0 3.32 0 4 C-1.65 3.67 -3.3 3.34 -5 3 C-4.01 4.485 -4.01 4.485 -3 6 C-4.32 6 -5.64 6 -7 6 C-7 4.35 -7 2.7 -7 1 C-5.5459375 1.0309375 -5.5459375 1.0309375 -4.0625 1.0625 C-1.12534105 1.35618499 -1.12534105 1.35618499 0 0 Z " fill="#ACACAC" transform="translate(232,147)"/>
<path d="M0 0 C0.721875 0.185625 1.44375 0.37125 2.1875 0.5625 C5.1472232 1.02290139 7.11630565 0.70143917 10 0 C12.42797311 0 14.62907005 0.50085685 17 1 C17 2.65 17 4.3 17 6 C13.16262438 6.80786855 9.93591456 7 6 7 C5.34 6.01 4.68 5.02 4 4 C3.67 4.33 3.34 4.66 3 5 C3.66 5.66 4.32 6.32 5 7 C3.35 7 1.7 7 0 7 C0.66 5.35 1.32 3.7 2 2 C1.34 2 0.68 2 0 2 C0 1.34 0 0.68 0 0 Z " fill="#A0A0A0" transform="translate(332,146)"/>
<path d="M0 0 C2.97 0 5.94 0 9 0 C9 0.66 9 1.32 9 2 C11.10810549 2 13.21635438 1.99672741 15.32421875 1.96484375 C16.10410156 1.95582031 16.88398438 1.94679687 17.6875 1.9375 C18.47511719 1.92589844 19.26273437 1.91429687 20.07421875 1.90234375 C22 2 22 2 23 3 C23.04063832 4.66617115 23.042721 6.33388095 23 8 C22.67 6.68 22.34 5.36 22 4 C21.34 4 20.68 4 20 4 C20 5.32 20 6.64 20 8 C16.7 8 13.4 8 10 8 C10 6.68 10 5.36 10 4 C9.34 4 8.68 4 8 4 C7.67 5.32 7.34 6.64 7 8 C7 6.02 7 4.04 7 2 C6.01 2 5.02 2 4 2 C4 3.98 4 5.96 4 8 C3.67 8 3.34 8 3 8 C3 6.02 3 4.04 3 2 C2.01 2 1.02 2 0 2 C0 1.34 0 0.68 0 0 Z " fill="#B7B7B7" transform="translate(317,131)"/>
<path d="M0 0 C4.95 0 9.9 0 15 0 C15 0.99 15 1.98 15 3 C13.02 3 11.04 3 9 3 C9 7.95 9 12.9 9 18 C8.01 18 7.02 18 6 18 C6 13.05 6 8.1 6 3 C4.02 3 2.04 3 0 3 C0 2.01 0 1.02 0 0 Z " fill="#E5E5E5" transform="translate(253,76)"/>
<path d="M0 0 C0.598125 0.185625 1.19625 0.37125 1.8125 0.5625 C4.16408762 1.22093687 4.16408762 1.22093687 7 0 C7.33 0.66 7.66 1.32 8 2 C8.99 2 9.98 2 11 2 C13.125 2.3125 13.125 2.3125 15 3 C15.33 3.99 15.66 4.98 16 6 C13.33333333 6 10.66666667 6 8 6 C6.10307388 6.15373063 4.20727167 6.32166855 2.3125 6.5 C1.31863281 6.5928125 0.32476562 6.685625 -0.69921875 6.78125 C-1.83810547 6.88953125 -1.83810547 6.88953125 -3 7 C-3.33 5.35 -3.66 3.7 -4 2 C-3.34 1.67 -2.68 1.34 -2 1 C-1.34 1.33 -0.68 1.66 0 2 C0 1.34 0 0.68 0 0 Z " fill="#ACAEB2" transform="translate(461,16)"/>
<path d="M0 0 C0.78375 0.165 1.5675 0.33 2.375 0.5 C5.6518327 1.12415861 6.77779 1.07407 10 0 C10 0.66 10 1.32 10 2 C10.66 2 11.32 2 12 2 C12 1.34 12 0.68 12 0 C13.32 0 14.64 0 16 0 C16 0.66 16 1.32 16 2 C16.66 2 17.32 2 18 2 C18 1.34 18 0.68 18 0 C19.32 0.33 20.64 0.66 22 1 C21.67 1.66 21.34 2.32 21 3 C20.34 3 19.68 3 19 3 C18.67 4.32 18.34 5.64 18 7 C17.34 7 16.68 7 16 7 C15.67 5.68 15.34 4.36 15 3 C14.34 3 13.68 3 13 3 C12.67 4.32 12.34 5.64 12 7 C11.34 7 10.68 7 10 7 C9.67 5.68 9.34 4.36 9 3 C8.62875 3.474375 8.2575 3.94875 7.875 4.4375 C5.37353038 6.52205802 3.18406582 6.64621491 0 7 C0 4.69 0 2.38 0 0 Z " fill="#C6C6C7" transform="translate(156,321)"/>
<path d="M0 0 C2.64 0 5.28 0 8 0 C8 0.66 8 1.32 8 2 C9.65 2.33 11.3 2.66 13 3 C13 4.65 13 6.3 13 8 C10.36 8 7.72 8 5 8 C5 7.34 5 6.68 5 6 C4.34 6 3.68 6 3 6 C2.67 6.66 2.34 7.32 2 8 C1.34 8 0.68 8 0 8 C0 5.36 0 2.72 0 0 Z " fill="#686868" transform="translate(194,351)"/>
<path d="M0 0 C0.33 0.66 0.66 1.32 1 2 C1.92232422 1.87431641 1.92232422 1.87431641 2.86328125 1.74609375 C3.67152344 1.64425781 4.47976562 1.54242188 5.3125 1.4375 C6.11300781 1.33308594 6.91351563 1.22867188 7.73828125 1.12109375 C10 1 10 1 13 2 C13.1875 4.375 13.1875 4.375 13 7 C9.1496895 9.56687367 7.41430237 8.83288724 3 8 C3 6.35 3 4.7 3 3 C2.34 3 1.68 3 1 3 C0.67 4.32 0.34 5.64 0 7 C0 4.69 0 2.38 0 0 Z " fill="#817F7F" transform="translate(182,146)"/>
<path d="M0 0 C4.33333333 0 8.66666667 0 13 0 C13 1.32 13 2.64 13 4 C13.66 4 14.32 4 15 4 C15.33 2.68 15.66 1.36 16 0 C16 1.98 16 3.96 16 6 C14.5629191 6.05422947 13.12524538 6.09289723 11.6875 6.125 C10.88699219 6.14820313 10.08648437 6.17140625 9.26171875 6.1953125 C7 6 7 6 4 4 C3.67 5.32 3.34 6.64 3 8 C2.34 8 1.68 8 1 8 C0.67 5.36 0.34 2.72 0 0 Z " fill="#969696" transform="translate(182,133)"/>
<path d="M0 0 C1.0725 0.33 2.145 0.66 3.25 1 C6.99731601 2.1717751 6.99731601 2.1717751 11 2 C10.34 4.31 9.68 6.62 9 9 C8.01 9 7.02 9 6 9 C6 8.01 6 7.02 6 6 C5.67 6.66 5.34 7.32 5 8 C3.35 8 1.7 8 0 8 C0 6.68 0 5.36 0 4 C-0.66 4 -1.32 4 -2 4 C-2 5.32 -2 6.64 -2 8 C-2.99 7.67 -3.98 7.34 -5 7 C-4.67 5.35 -4.34 3.7 -4 2 C-2.68 2 -1.36 2 0 2 C0 1.34 0 0.68 0 0 Z " fill="#C4C4C4" transform="translate(247,351)"/>
<path d="M0 0 C0.33 0.66 0.66 1.32 1 2 C1.33 1.34 1.66 0.68 2 0 C5.66666667 0 9.33333333 0 13 0 C13 0.66 13 1.32 13 2 C12.34 2 11.68 2 11 2 C11 3.32 11 4.64 11 6 C10.34 6 9.68 6 9 6 C8.67 5.67 8.34 5.34 8 5 C7.4225 5.165 6.845 5.33 6.25 5.5 C4 6 4 6 1.5625 5.5 C-1.2832481 4.94473208 -3.21591523 5.28409249 -6 6 C-5.34 5.01 -4.68 4.02 -4 3 C-4.66 2.34 -5.32 1.68 -6 1 C-3.92446352 0.4465236 -2.15634036 0 0 0 Z " fill="#9A9A9A" transform="translate(316,147)"/>
<path d="M0 0 C0.66 0 1.32 0 2 0 C2 0.66 2 1.32 2 2 C2.99 2 3.98 2 5 2 C5.33 1.34 5.66 0.68 6 0 C6.66 0 7.32 0 8 0 C8 2.97 8 5.94 8 9 C6.68 9 5.36 9 4 9 C4 7.02 4 5.04 4 3 C3.34 3 2.68 3 2 3 C2 4.65 2 6.3 2 8 C0.02 8 -1.96 8 -4 8 C-4.33 6.35 -4.66 4.7 -5 3 C-4.360625 2.87625 -3.72125 2.7525 -3.0625 2.625 C-2.0415625 2.315625 -2.0415625 2.315625 -1 2 C-0.67 1.34 -0.34 0.68 0 0 Z " fill="#989898" transform="translate(323,160)"/>
<path d="M0 0 C0.61488281 0.144375 1.22976562 0.28875 1.86328125 0.4375 C3.07564453 0.7159375 3.07564453 0.7159375 4.3125 1 C5.11300781 1.185625 5.91351563 1.37125 6.73828125 1.5625 C9.10695938 2.09495823 9.10695938 2.09495823 12 2 C12.33 1.34 12.66 0.68 13 0 C13 2.31 13 4.62 13 7 C10.69 7.33 8.38 7.66 6 8 C6 6.35 6 4.7 6 3 C5.34 3 4.68 3 4 3 C4 4.65 4 6.3 4 8 C2.68 8 1.36 8 0 8 C0 5.36 0 2.72 0 0 Z " fill="#999696" transform="translate(116,117)"/>
<path d="M0 0 C2.64 0 5.28 0 8 0 C8 1.32 8 2.64 8 4 C6.68 4 5.36 4 4 4 C4 7.3 4 10.6 4 14 C2.68 14 1.36 14 0 14 C0 9.38 0 4.76 0 0 Z " fill="#C9C9C9" transform="translate(232,80)"/>
<path d="M0 0 C2.875 -0.125 2.875 -0.125 6 0 C6.66 0.66 7.32 1.32 8 2 C10.58354218 2.16687448 10.58354218 2.16687448 13 2 C13 1.34 13 0.68 13 0 C13.66 0 14.32 0 15 0 C15 2.64 15 5.28 15 8 C13.72125 8.061875 12.4425 8.12375 11.125 8.1875 C10.40570313 8.22230469 9.68640625 8.25710938 8.9453125 8.29296875 C8.30335938 8.19628906 7.66140625 8.09960938 7 8 C5 5 5 5 5 2 C4.34 2 3.68 2 3 2 C3 3.98 3 5.96 3 8 C2.67 8 2.34 8 2 8 C2 6.02 2 4.04 2 2 C1.34 2 0.68 2 0 2 C0 1.34 0 0.68 0 0 Z " fill="#C4C4C4" transform="translate(285,351)"/>
<path d="M0 0 C1.98 0 3.96 0 6 0 C6.33 1.32 6.66 2.64 7 4 C7.66 4 8.32 4 9 4 C9 3.34 9 2.68 9 2 C9.598125 1.855625 10.19625 1.71125 10.8125 1.5625 C12.56150404 1.1127561 14.28677023 0.57107659 16 0 C16 2.64 16 5.28 16 8 C15.34 8 14.68 8 14 8 C13.67 7.34 13.34 6.68 13 6 C12.34 6.66 11.68 7.32 11 8 C10.67 7.34 10.34 6.68 10 6 C9.67 6.66 9.34 7.32 9 8 C8.34 8 7.68 8 7 8 C6.67 6.35 6.34 4.7 6 3 C5.34 3 4.68 3 4 3 C4 4.65 4 6.3 4 8 C3.34 8 2.68 8 2 8 C2 5.69 2 3.38 2 1 C1.34 0.67 0.68 0.34 0 0 Z " fill="#8C9196" transform="translate(69,15)"/>
<path d="M0 0 C0 0.66 0 1.32 0 2 C1.11375 1.79375 2.2275 1.5875 3.375 1.375 C4.57125 1.25125 5.7675 1.1275 7 1 C7.66 1.66 8.32 2.32 9 3 C7.68 4.32 6.36 5.64 5 7 C4.67 5.68 4.34 4.36 4 3 C3.34 3 2.68 3 2 3 C2 4.32 2 5.64 2 7 C-0.97 7 -3.94 7 -7 7 C-7 5.02 -7 3.04 -7 1 C-2.25 0 -2.25 0 0 0 Z " fill="#D6D7D8" transform="translate(132,261)"/>
<path d="M0 0 C2.31 0 4.62 0 7 0 C7 1.32 7 2.64 7 4 C7.66 4 8.32 4 9 4 C9 2.68 9 1.36 9 0 C10.65 0 12.3 0 14 0 C13.67 1.98 13.34 3.96 13 6 C10.69 6.33 8.38 6.66 6 7 C5.67 6.34 5.34 5.68 5 5 C4.0409375 5.2784375 4.0409375 5.2784375 3.0625 5.5625 C2.381875 5.706875 1.70125 5.85125 1 6 C0 5 0 5 -0.0625 2.4375 C-0.041875 1.633125 -0.02125 0.82875 0 0 Z " fill="#A4A4A4" transform="translate(352,119)"/>
<path d="M0 0 C0.66 0 1.32 0 2 0 C2 0.66 2 1.32 2 2 C3.98 1.67 5.96 1.34 8 1 C8.33 1.66 8.66 2.32 9 3 C10.65 2.67 12.3 2.34 14 2 C14 3.98 14 5.96 14 8 C11.69 8 9.38 8 7 8 C6.67 6.35 6.34 4.7 6 3 C5.34 3 4.68 3 4 3 C4 4.65 4 6.3 4 8 C2.68 8 1.36 8 0 8 C0 5.36 0 2.72 0 0 Z " fill="#B0AFAF" transform="translate(175,160)"/>
<path d="M0 0 C0.86625 0.5259375 0.86625 0.5259375 1.75 1.0625 C4.35801776 2.14917407 5.39417629 1.93065133 8 1 C9.04449911 4.13349732 8.93423645 4.98968256 8 8 C3.94568308 9.15837626 1.78187881 8.83691257 -2 7 C-1.125 1.125 -1.125 1.125 0 0 Z " fill="#2F2F2F" transform="translate(263,352)"/>
<path d="M0 0 C0.66 0 1.32 0 2 0 C2.66 0.99 3.32 1.98 4 3 C4.680625 2.2575 4.680625 2.2575 5.375 1.5 C7 0 7 0 9 0 C9 0.66 9 1.32 9 2 C9.99 2 10.98 2 12 2 C12 1.34 12 0.68 12 0 C12.66 0 13.32 0 14 0 C14 2.31 14 4.62 14 7 C7.07 6.505 7.07 6.505 0 6 C-1 3 -1 3 0 0 Z " fill="#BDBDBE" transform="translate(134,281)"/>
<path d="M0 0 C0.66 0 1.32 0 2 0 C2 1.98 2 3.96 2 6 C2.66 6 3.32 6 4 6 C4 6.66 4 7.32 4 8 C-5.25 8 -5.25 8 -9 7 C-8.67 5.35 -8.34 3.7 -8 2 C-5.36 2 -2.72 2 0 2 C0 1.34 0 0.68 0 0 Z " fill="#9B9B9B" transform="translate(310,131)"/>
<path d="M0 0 C1.97909398 -0.02686553 3.95828971 -0.04633375 5.9375 -0.0625 C7.03964844 -0.07410156 8.14179688 -0.08570313 9.27734375 -0.09765625 C12 0 12 0 13 1 C13 2.65 13 4.3 13 6 C8.71 6 4.42 6 0 6 C0 4.02 0 2.04 0 0 Z " fill="#A4A4A4" transform="translate(301,162)"/>
<path d="M0 0 C2.475 0.99 2.475 0.99 5 2 C5 3.98 5 5.96 5 8 C3.35 8 1.7 8 0 8 C0 6.68 0 5.36 0 4 C-0.66 4 -1.32 4 -2 4 C-2 5.32 -2 6.64 -2 8 C-4.31 8 -6.62 8 -9 8 C-8.67 7.01 -8.34 6.02 -8 5 C-8 5.66 -8 6.32 -8 7 C-7.34 7 -6.68 7 -6 7 C-6 6.01 -6 5.02 -6 4 C-6.66 3.67 -7.32 3.34 -8 3 C-5.36 2.67 -2.72 2.34 0 2 C0 1.34 0 0.68 0 0 Z " fill="#B3B2B2" transform="translate(176,145)"/>
<path d="M0 0 C0.66 0 1.32 0 2 0 C2 2.64 2 5.28 2 8 C-1.96 8 -5.92 8 -10 8 C-10 6.02 -10 4.04 -10 2 C-9.67 3.32 -9.34 4.64 -9 6 C-8.34 6 -7.68 6 -7 6 C-7 4.68 -7 3.36 -7 2 C-5.02 2 -3.04 2 -1 2 C-0.67 1.34 -0.34 0.68 0 0 Z " fill="#9C9C9C" transform="translate(354,131)"/>
<path d="M0 0 C0 0.66 0 1.32 0 2 C1.98 2 3.96 2 6 2 C5.1875 5.4375 5.1875 5.4375 4 9 C3.01 9.33 2.02 9.66 1 10 C1 8.35 1 6.7 1 5 C0.67 5.66 0.34 6.32 0 7 C-2.5625 7.625 -2.5625 7.625 -5 8 C-5 6.35 -5 4.7 -5 3 C-5.66 3 -6.32 3 -7 3 C-7.33 4.32 -7.66 5.64 -8 7 C-8.1875 4.625 -8.1875 4.625 -8 2 C-4.77208445 -0.1519437 -3.71599191 -0.20086443 0 0 Z " fill="#A7A7A7" transform="translate(189,117)"/>
<path d="M0 0 C3.63 0 7.26 0 11 0 C11 2.31 11 4.62 11 7 C9.35 7.33 7.7 7.66 6 8 C5.67 7.34 5.34 6.68 5 6 C4.34 6 3.68 6 3 6 C3 4.68 3 3.36 3 2 C2.34 2 1.68 2 1 2 C0.67 3.32 0.34 4.64 0 6 C0 4.02 0 2.04 0 0 Z " fill="#9E9E9E" transform="translate(357,133)"/>
<path d="M0 0 C0.66 0 1.32 0 2 0 C2 0.66 2 1.32 2 2 C5.09538161 2.99494409 6.89827875 2.85564724 10 2 C11 3 11 3 11.0625 5.5625 C11.041875 6.366875 11.02125 7.17125 11 8 C10.195625 7.814375 9.39125 7.62875 8.5625 7.4375 C7.716875 7.293125 6.87125 7.14875 6 7 C5.67 7.33 5.34 7.66 5 8 C3.33382885 8.04063832 1.66611905 8.042721 0 8 C0 5.36 0 2.72 0 0 Z " fill="#ABABAB" transform="translate(251,131)"/>
<path d="M0 0 C1.4540625 0.0309375 1.4540625 0.0309375 2.9375 0.0625 C2.9375 0.7225 2.9375 1.3825 2.9375 2.0625 C4.5875 1.7325 6.2375 1.4025 7.9375 1.0625 C7.9375 2.7125 7.9375 4.3625 7.9375 6.0625 C7.6075 5.0725 7.2775 4.0825 6.9375 3.0625 C6.2775 3.0625 5.6175 3.0625 4.9375 3.0625 C4.9375 4.3825 4.9375 5.7025 4.9375 7.0625 C-1.21484375 7.16015625 -1.21484375 7.16015625 -3.0625 7.0625 C-4.0625 6.0625 -4.0625 6.0625 -4.1875 3.5625 C-4.00295237 -0.12845252 -3.76342282 0.07680455 0 0 Z " fill="#C1C3C5" transform="translate(129.0625,301.9375)"/>
<path d="M0 0 C0.66 0 1.32 0 2 0 C2 0.66 2 1.32 2 2 C4.97 2 7.94 2 11 2 C11 2.99 11 3.98 11 5 C10.01 5 9.02 5 8 5 C8.99 5.33 9.98 5.66 11 6 C11 6.66 11 7.32 11 8 C7.37 8 3.74 8 0 8 C0 5.36 0 2.72 0 0 Z " fill="#9B9B9B" transform="translate(278,160)"/>
<path d="M0 0 C0 2.64 0 5.28 0 8 C-3.3 8 -6.6 8 -10 8 C-10 6.02 -10 4.04 -10 2 C-8.8553125 2.061875 -8.8553125 2.061875 -7.6875 2.125 C-4.47907417 1.97577089 -3.09420422 0 0 0 Z " fill="#A9A8A8" transform="translate(154,131)"/>
<path d="M0 0 C0 0.66 0 1.32 0 2 C1.32 1.67 2.64 1.34 4 1 C3.01 3.31 2.02 5.62 1 8 C0.34 7.67 -0.32 7.34 -1 7 C-1 5.35 -1 3.7 -1 2 C-1.66 2 -2.32 2 -3 2 C-2.67 3.32 -2.34 4.64 -2 6 C-3.65 6 -5.3 6 -7 6 C-7 4.68 -7 3.36 -7 2 C-7.66 2 -8.32 2 -9 2 C-9.33 3.32 -9.66 4.64 -10 6 C-10.33 4.02 -10.66 2.04 -11 0 C-7.18243176 -1.37432457 -3.92744671 -0.67975039 0 0 Z " fill="#A7A7A7" transform="translate(388,147)"/>
<path d="M0 0 C0.66 0 1.32 0 2 0 C2 2.64 2 5.28 2 8 C0.081875 7.8453125 0.081875 7.8453125 -1.875 7.6875 C-2.95394531 7.60048828 -2.95394531 7.60048828 -4.0546875 7.51171875 C-6 7 -6 7 -8 4 C-8 5.32 -8 6.64 -8 8 C-8.99 7.67 -9.98 7.34 -11 7 C-11 5.02 -11 3.04 -11 1 C-10.37351563 1.09539062 -9.74703125 1.19078125 -9.1015625 1.2890625 C-7.87566406 1.45535156 -7.87566406 1.45535156 -6.625 1.625 C-5.81289062 1.74101563 -5.00078125 1.85703125 -4.1640625 1.9765625 C-3.44992188 1.98429687 -2.73578125 1.99203125 -2 2 C-1.34 1.34 -0.68 0.68 0 0 Z " fill="#B4B4B4" transform="translate(254,117)"/>
<path d="M0 0 C0.66 0 1.32 0 2 0 C2 0.66 2 1.32 2 2 C2.7425 2 3.485 2 4.25 2 C6.5 2 8.75 2 11 2 C10.1875 5.4375 10.1875 5.4375 9 9 C8.01 9.33 7.02 9.66 6 10 C6 8.68 6 7.36 6 6 C5.34 6.66 4.68 7.32 4 8 C2.68 8 1.36 8 0 8 C0 5.36 0 2.72 0 0 Z " fill="#B6B6B6" transform="translate(292,117)"/>
<path d="M0 0 C0.99 0 1.98 0 3 0 C3 0.99 3 1.98 3 3 C3.66 3 4.32 3 5 3 C5 3.66 5 4.32 5 5 C4.34 5 3.68 5 3 5 C3 7.97 3 10.94 3 14 C3.66 14 4.32 14 5 14 C5 14.66 5 15.32 5 16 C3.35 15.67 1.7 15.34 0 15 C0 11.7 0 8.4 0 5 C-0.66 5 -1.32 5 -2 5 C-2 4.34 -2 3.68 -2 3 C-1.34 3 -0.68 3 0 3 C0 2.01 0 1.02 0 0 Z " fill="#F2F2F2" transform="translate(225,78)"/>
<path d="M0 0 C2 2 2 2 3 5 C3.99 4.34 4.98 3.68 6 3 C6.020625 3.763125 6.04125 4.52625 6.0625 5.3125 C6.79660949 8.41389118 6.79660949 8.41389118 10.5625 9.8125 C11.696875 10.204375 12.83125 10.59625 14 11 C13.67 11.66 13.34 12.32 13 13 C10.61435923 12.42415568 8.33317216 11.77772405 6 11 C6.33 12.32 6.66 13.64 7 15 C6.01 15.495 6.01 15.495 5 16 C4.1605118 13.89828133 3.32860344 11.79353375 2.5 9.6875 C2.0359375 8.51574219 1.571875 7.34398438 1.09375 6.13671875 C0 3 0 3 0 0 Z " fill="#121212" transform="translate(205,79)"/>
<path d="M0 0 C0.33 2.31 0.66 4.62 1 7 C-3 7 -7 7 -11 7 C-11.33 5.35 -11.66 3.7 -12 2 C-10.8553125 2.061875 -10.8553125 2.061875 -9.6875 2.125 C-5.71685965 1.94031905 -4.24813864 0 0 0 Z " fill="#A6A6A6" transform="translate(299,146)"/>
<path d="M0 0 C1.43791516 0.14168137 2.8753237 0.28851043 4.3125 0.4375 C5.11300781 0.51871094 5.91351563 0.59992188 6.73828125 0.68359375 C9 1 9 1 12 2 C11.67 3.65 11.34 5.3 11 7 C10.34 7 9.68 7 9 7 C9 6.01 9 5.02 9 4 C8.01 4.495 8.01 4.495 7 5 C7 5.66 7 6.32 7 7 C5.02 7 3.04 7 1 7 C0.67 4.69 0.34 2.38 0 0 Z " fill="#ACACAC" transform="translate(317,118)"/>
<path d="M0 0 C0.66 0 1.32 0 2 0 C2.66 0.99 3.32 1.98 4 3 C4.66 3 5.32 3 6 3 C6 3.99 6 4.98 6 6 C5.01 6 4.02 6 3 6 C2.67 6.66 2.34 7.32 2 8 C-1.76687864 8 -2.91190305 7.76462683 -6 6 C-5.67 4.68 -5.34 3.36 -5 2 C-3.68 2 -2.36 2 -1 2 C-0.67 1.34 -0.34 0.68 0 0 Z " fill="#B6B6B6" transform="translate(221,117)"/>
<path d="M0 0 C1.32 0.33 2.64 0.66 4 1 C4.66 3.64 5.32 6.28 6 9 C6.66 8.34 7.32 7.68 8 7 C7.67 9.31 7.34 11.62 7 14 C6.01 14 5.02 14 4 14 C1.77343836 9.25645564 0.53851968 5.27749285 0 0 Z " fill="#DFDFDF" transform="translate(267,80)"/>
<path d="M0 0 C1.65 0.33 3.3 0.66 5 1 C5.33 2.65 5.66 4.3 6 6 C5.34 6 4.68 6 4 6 C4 7.65 4 9.3 4 11 C2.68 11 1.36 11 0 11 C0 9.35 0 7.7 0 6 C-0.99 6.495 -0.99 6.495 -2 7 C-1.34 4.69 -0.68 2.38 0 0 Z " fill="#A4A4A4" transform="translate(199,76)"/>
<path d="M0 0 C0.99 0.33 1.98 0.66 3 1 C3 2.65 3 4.3 3 6 C2.2575 5.814375 1.515 5.62875 0.75 5.4375 C-2.00646092 4.99897213 -3.37203973 5.2992106 -6 6 C-6.99 5.67 -7.98 5.34 -9 5 C-9.6875 2.9375 -9.6875 2.9375 -10 1 C-9.36191406 1.01160156 -8.72382813 1.02320313 -8.06640625 1.03515625 C-7.24011719 1.04417969 -6.41382813 1.05320313 -5.5625 1.0625 C-4.32693359 1.07990234 -4.32693359 1.07990234 -3.06640625 1.09765625 C-1.00836062 1.23267348 -1.00836062 1.23267348 0 0 Z " fill="#A5A5A5" transform="translate(211,147)"/>
<path d="M0 0 C0.721875 0.00257813 1.44375 0.00515625 2.1875 0.0078125 C2.909375 0.00523437 3.63125 0.00265625 4.375 0 C6.1875 0.1328125 6.1875 0.1328125 7.1875 1.1328125 C7.22813832 2.79898365 7.230221 4.46669345 7.1875 6.1328125 C4.2175 6.1328125 1.2475 6.1328125 -1.8125 6.1328125 C-2.19468767 4.47666593 -2.52645102 2.80824226 -2.8125 1.1328125 C-1.8125 0.1328125 -1.8125 0.1328125 0 0 Z " fill="#919191" transform="translate(234.8125,132.8671875)"/>
<path d="M0 0 C0.8146875 0.00257813 1.629375 0.00515625 2.46875 0.0078125 C3.2834375 0.00523437 4.098125 0.00265625 4.9375 0 C6.96875 0.1328125 6.96875 0.1328125 7.96875 1.1328125 C8.00938832 2.79898365 8.011471 4.46669345 7.96875 6.1328125 C7.30875 6.1328125 6.64875 6.1328125 5.96875 6.1328125 C5.96875 4.8128125 5.96875 3.4928125 5.96875 2.1328125 C5.30875 2.1328125 4.64875 2.1328125 3.96875 2.1328125 C3.96875 3.4528125 3.96875 4.7728125 3.96875 6.1328125 C1.98875 6.1328125 0.00875 6.1328125 -2.03125 6.1328125 C-2.41343767 4.47666593 -2.74520102 2.80824226 -3.03125 1.1328125 C-2.03125 0.1328125 -2.03125 0.1328125 0 0 Z " fill="#8E8C8C" transform="translate(158.03125,132.8671875)"/>
<path d="M0 0 C1.32 0.33 2.64 0.66 4 1 C6.68149993 0.61432869 6.68149993 0.61432869 9 0 C7.7934375 0.9590625 7.7934375 0.9590625 6.5625 1.9375 C3.24587237 5.90127449 3.12047418 8.97294083 3 14 C2.01 14 1.02 14 0 14 C0 9.38 0 4.76 0 0 Z " fill="#C1C1C1" transform="translate(294,80)"/>
<path d="M0 0 C1.32 0 2.64 0 4 0 C4 1.65 4 3.3 4 5 C3.34 5 2.68 5 2 5 C1.731875 5.598125 1.46375 6.19625 1.1875 6.8125 C0 9 0 9 -1.5625 10.4375 C-3.45263121 12.49199044 -3.6324247 14.27994277 -4 17 C-4.66 17 -5.32 17 -6 17 C-6 14.69 -6 12.38 -6 10 C-5.01 9.67 -4.02 9.34 -3 9 C-1.16825705 6.15062207 -0.55260426 3.31562557 0 0 Z " fill="#DDDDDD" transform="translate(36,9)"/>
<path d="M0 0 C0.66 0.66 1.32 1.32 2 2 C1.67 2.99 1.34 3.98 1 5 C1.66 5 2.32 5 3 5 C3 5.66 3 6.32 3 7 C-1.3164922 7.76173392 -4.74433453 8.16063604 -9 7 C-8.34 6.01 -7.68 5.02 -7 4 C-7 4.66 -7 5.32 -7 6 C-6.34 6 -5.68 6 -5 6 C-5.33 4.35 -5.66 2.7 -6 1 C-3.125 0.375 -3.125 0.375 0 0 Z " fill="#6E6E6E" transform="translate(287,118)"/>
<path d="M0 0 C0 0.66 0 1.32 0 2 C0.99 2 1.98 2 3 2 C3 3.65 3 5.3 3 7 C2.67 5.68 2.34 4.36 2 3 C1.34 3 0.68 3 0 3 C0 4.65 0 6.3 0 8 C-1.65 7.67 -3.3 7.34 -5 7 C-5 5.68 -5 4.36 -5 3 C-5.66 3 -6.32 3 -7 3 C-7.33 4.32 -7.66 5.64 -8 7 C-8 5.35 -8 3.7 -8 2 C-4.91190305 0.23537317 -3.76687864 0 0 0 Z " fill="#8E8E8E" transform="translate(386,117)"/>
<path d="M0 0 C4.95 0 9.9 0 15 0 C15.33 1.65 15.66 3.3 16 5 C12.37 5 8.74 5 5 5 C5 3.68 5 2.36 5 1 C4.34 1 3.68 1 3 1 C2.67 1.99 2.34 2.98 2 4 C2 3.01 2 2.02 2 1 C1.34 0.67 0.68 0.34 0 0 Z " fill="#C4C4C6" transform="translate(200,323)"/>
<path d="M0 0 C0.99 0.495 0.99 0.495 2 1 C3.11375 0.835 4.2275 0.67 5.375 0.5 C8.50098494 0.06882966 10.11395187 -0.03897733 13 1 C12.67 2.32 12.34 3.64 12 5 C8.04 5 4.08 5 0 5 C0 3.35 0 1.7 0 0 Z " fill="#A7AAAD" transform="translate(164,263)"/>
<path d="M0 0 C3.66666667 0 7.33333333 0 11 0 C11.33 1.65 11.66 3.3 12 5 C10.68 5 9.36 5 8 5 C8 4.01 8 3.02 8 2 C7.67 2.33 7.34 2.66 7 3 C7 3.66 7 4.32 7 5 C4.36 5 1.72 5 -1 5 C-0.67 3.35 -0.34 1.7 0 0 Z " fill="#B2B4B7" transform="translate(151,263)"/>
<path d="M0 0 C0 1.98 0 3.96 0 6 C-0.639375 5.814375 -1.27875 5.62875 -1.9375 5.4375 C-2.9584375 5.2209375 -2.9584375 5.2209375 -4 5 C-4.33 5.33 -4.66 5.66 -5 6 C-5.66 5.67 -6.32 5.34 -7 5 C-7 3.68 -7 2.36 -7 1 C-7.66 1 -8.32 1 -9 1 C-9 2.65 -9 4.3 -9 6 C-9.66 6 -10.32 6 -11 6 C-11 4.02 -11 2.04 -11 0 C-7.18243176 -1.37432457 -3.92744671 -0.67975039 0 0 Z " fill="#ADADAD" transform="translate(220,162)"/>
<path d="M0 0 C0.66 0 1.32 0 2 0 C2 0.66 2 1.32 2 2 C3.65 2 5.3 2 7 2 C7 4.31 7 6.62 7 9 C5.35 9 3.7 9 2 9 C2 8.34 2 7.68 2 7 C1.34 7 0.68 7 0 7 C0 4.69 0 2.38 0 0 Z " fill="#969393" transform="translate(159,146)"/>
<path d="M0 0 C-0.66 1.98 -1.32 3.96 -2 6 C-2.7425 5.835 -3.485 5.67 -4.25 5.5 C-7.19006578 4.88074304 -7.19006578 4.88074304 -11 5 C-11 3.35 -11 1.7 -11 0 C-7.01803543 -1.05404945 -4.01804691 -0.84098656 0 0 Z " fill="#B6B6B6" transform="translate(215,119)"/>
<path d="M0 0 C0.598125 0.185625 1.19625 0.37125 1.8125 0.5625 C4.16408762 1.22093687 4.16408762 1.22093687 7 0 C7 2.64 7 5.28 7 8 C6.01 8.495 6.01 8.495 5 9 C2.375 8.0625 2.375 8.0625 0 7 C0 4.69 0 2.38 0 0 Z " fill="#AEACAC" transform="translate(131,146)"/>
<path d="M0 0 C2.475 0.99 2.475 0.99 5 2 C4.125 6.875 4.125 6.875 3 8 C0.32941149 8.14115161 -2.32432238 8.04247107 -5 8 C-5.33 6.68 -5.66 5.36 -6 4 C-3.69 4.33 -1.38 4.66 1 5 C0.67 3.35 0.34 1.7 0 0 Z " fill="#E5E5E5" transform="translate(217,86)"/>
<path d="M0 0 C0.99 0.495 0.99 0.495 2 1 C2.825 0.835 3.65 0.67 4.5 0.5 C7 0 7 0 9 1 C9.99 0.67 10.98 0.34 12 0 C12.33 1.65 12.66 3.3 13 5 C8.71 5 4.42 5 0 5 C0 3.35 0 1.7 0 0 Z " fill="#AEAEAF" transform="translate(174,282)"/>
<path d="M0 0 C0.66 0 1.32 0 2 0 C2 0.99 2 1.98 2 3 C2.66 3 3.32 3 4 3 C4.33 2.01 4.66 1.02 5 0 C5.66 0 6.32 0 7 0 C7 0.66 7 1.32 7 2 C8.32 2 9.64 2 11 2 C11 3.32 11 4.64 11 6 C7.37 6 3.74 6 0 6 C0 4.02 0 2.04 0 0 Z " fill="#85898E" transform="translate(387,16)"/>
<path d="M0 0 C0 2.64 0 5.28 0 8 C-2.31 7.67 -4.62 7.34 -7 7 C-7 5.35 -7 3.7 -7 2 C-2.25 0 -2.25 0 0 0 Z " fill="#ABABAB" transform="translate(365,146)"/>
<path d="M0 0 C0.66 0 1.32 0 2 0 C2 2.64 2 5.28 2 8 C-0.31 8 -2.62 8 -5 8 C-5 6.02 -5 4.04 -5 2 C-3.68 2 -2.36 2 -1 2 C-0.67 1.34 -0.34 0.68 0 0 Z " fill="#ACACAC" transform="translate(276,131)"/>
<path d="M0 0 C0.66 0 1.32 0 2 0 C2.33 0.66 2.66 1.32 3 2 C5.02463255 2.65213292 5.02463255 2.65213292 7 3 C7 4.65 7 6.3 7 8 C4.69 8 2.38 8 0 8 C0 5.36 0 2.72 0 0 Z " fill="#9D9D9D" transform="translate(290,131)"/>
<path d="M0 0 C0.99 0 1.98 0 3 0 C3.33 2.31 3.66 4.62 4 7 C2.02 7.99 2.02 7.99 0 9 C-2 7 -2 7 -2.25 4.5 C-2 2 -2 2 0 0 Z " fill="#1D1D1D" transform="translate(246,83)"/>
<path d="M0 0 C1.4540625 0.0309375 1.4540625 0.0309375 2.9375 0.0625 C2.9375 0.7225 2.9375 1.3825 2.9375 2.0625 C3.9275 2.0625 4.9175 2.0625 5.9375 2.0625 C5.6075 3.3825 5.2775 4.7025 4.9375 6.0625 C4.9375 5.0725 4.9375 4.0825 4.9375 3.0625 C4.2775 3.0625 3.6175 3.0625 2.9375 3.0625 C2.6075 4.0525 2.2775 5.0425 1.9375 6.0625 C0.2875 6.0625 -1.3625 6.0625 -3.0625 6.0625 C-3.44468767 4.40635343 -3.77645102 2.73792976 -4.0625 1.0625 C-3.0625 0.0625 -3.0625 0.0625 0 0 Z " fill="#B1B3B6" transform="translate(361.0625,15.9375)"/>
<path d="M0 0 C2.97 0 5.94 0 9 0 C9 1.65 9 3.3 9 5 C6.03 5 3.06 5 0 5 C0 3.35 0 1.7 0 0 Z " fill="#C6C6C7" transform="translate(219,323)"/>
<path d="M0 0 C1.99954746 -0.04254356 4.00041636 -0.04080783 6 0 C7 1 7 1 7.0625 3.5625 C7.041875 4.366875 7.02125 5.17125 7 6 C5.35 6.33 3.7 6.66 2 7 C1.67 6.01 1.34 5.02 1 4 C0.34 4.66 -0.32 5.32 -1 6 C-0.67 4.02 -0.34 2.04 0 0 Z " fill="#CDCDCF" transform="translate(148,321)"/>
<path d="M0 0 C1.32 0 2.64 0 4 0 C3.68991116 1.60463449 3.37683713 3.20869231 3.0625 4.8125 C2.88847656 5.70582031 2.71445312 6.59914063 2.53515625 7.51953125 C2 10 2 10 1 13 C-0.32 13 -1.64 13 -3 13 C-3 12.01 -3 11.02 -3 10 C-2.34 10 -1.68 10 -1 10 C-0.67 6.7 -0.34 3.4 0 0 Z " fill="#DBDBDB" transform="translate(282,81)"/>
<path d="M0 0 C0 1.98 0 3.96 0 6 C-1.32 6 -2.64 6 -4 6 C-4 5.34 -4 4.68 -4 4 C-3.01 4 -2.02 4 -1 4 C-1 3.34 -1 2.68 -1 2 C-2.423125 2.2784375 -2.423125 2.2784375 -3.875 2.5625 C-7 3 -7 3 -9 2 C-9 2.99 -9 3.98 -9 5 C-8.01 4.67 -7.02 4.34 -6 4 C-6 4.66 -6 5.32 -6 6 C-7.32 6 -8.64 6 -10 6 C-10 4.35 -10 2.7 -10 1 C-6.21812119 -0.83691257 -4.05431692 -1.15837626 0 0 Z " fill="#D0D0D0" transform="translate(242,353)"/>
<path d="M0 0 C0.33 0.66 0.66 1.32 1 2 C1.99 2 2.98 2 4 2 C4.33 1.34 4.66 0.68 5 0 C5.66 0 6.32 0 7 0 C7 2.31 7 4.62 7 7 C2.25 8.125 2.25 8.125 0 7 C0 4.69 0 2.38 0 0 Z " fill="#9A9A9A" transform="translate(370,117)"/>
<path d="M0 0 C0.99 0 1.98 0 3 0 C3 4.29 3 8.58 3 13 C2.01 13 1.02 13 0 13 C0 8.71 0 4.42 0 0 Z " fill="#F0F0F0" transform="translate(288,81)"/>
<path d="M0 0 C0.33 1.32 0.66 2.64 1 4 C1.66 4 2.32 4 3 4 C3 2.68 3 1.36 3 0 C4.98 0 6.96 0 9 0 C9 0.66 9 1.32 9 2 C8.34 2 7.68 2 7 2 C7 3.32 7 4.64 7 6 C4.69 6 2.38 6 0 6 C0 4.02 0 2.04 0 0 Z " fill="#A3A3A3" transform="translate(377,133)"/>
<path d="M0 0 C0.66 0 1.32 0 2 0 C2.33 0.66 2.66 1.32 3 2 C4.32 2 5.64 2 7 2 C6.67 3.98 6.34 5.96 6 8 C4.02 8 2.04 8 0 8 C0 5.36 0 2.72 0 0 Z " fill="#B4B4B4" transform="translate(167,117)"/>
<path d="M0 0 C1.65 0 3.3 0 5 0 C5 2.31 5 4.62 5 7 C3.0625 7.5625 3.0625 7.5625 1 8 C0 7 0 7 -0.0625 3.4375 C-0.041875 2.303125 -0.02125 1.16875 0 0 Z " fill="#9B9B9B" transform="translate(338,119)"/>
<path d="M0 0 C1.485 0.99 1.485 0.99 3 2 C3 2.99 3 3.98 3 5 C3.66 5 4.32 5 5 5 C5 4.34 5 3.68 5 3 C6.65 2.34 8.3 1.68 10 1 C10 1.66 10 2.32 10 3 C9.34 3 8.68 3 8 3 C8 3.66 8 4.32 8 5 C8.66 5.33 9.32 5.66 10 6 C9.01 6 8.02 6 7 6 C4.65789079 6.63514826 2.32315031 7.2986716 0 8 C0 5.36 0 2.72 0 0 Z " fill="#ADADAE" transform="translate(158,281)"/>
<path d="M0 0 C1.98 0 3.96 0 6 0 C6 1.32 6 2.64 6 4 C6.66 4 7.32 4 8 4 C8.33 2.68 8.66 1.36 9 0 C9 1.98 9 3.96 9 6 C6.69 5.67 4.38 5.34 2 5 C1.67 4.01 1.34 3.02 1 2 C0.01 3.485 0.01 3.485 -1 5 C-0.67 3.35 -0.34 1.7 0 0 Z " fill="#B3B3B3" transform="translate(262,162)"/>
<path d="M0 0 C1.47906892 -0.02689216 2.95827483 -0.04634621 4.4375 -0.0625 C5.26121094 -0.07410156 6.08492188 -0.08570313 6.93359375 -0.09765625 C9 0 9 0 10 1 C10.04063832 2.66617115 10.042721 4.33388095 10 6 C9.67 4.68 9.34 3.36 9 2 C8.34 2 7.68 2 7 2 C7 3.32 7 4.64 7 6 C6.34 6 5.68 6 5 6 C4.67 5.34 4.34 4.68 4 4 C3.01 4.33 2.02 4.66 1 5 C0.67 3.35 0.34 1.7 0 0 Z " fill="#A6A6A6" transform="translate(330,133)"/>
<path d="M0 0 C2.31 0.66 4.62 1.32 7 2 C7 3.65 7 5.3 7 7 C6.34 6.01 5.68 5.02 5 4 C4.67 5.32 4.34 6.64 4 8 C2.68 8 1.36 8 0 8 C0 5.36 0 2.72 0 0 Z " fill="#969696" transform="translate(330,117)"/>
<path d="M0 0 C1.2065625 0.0309375 1.2065625 0.0309375 2.4375 0.0625 C2.7675 0.7225 3.0975 1.3825 3.4375 2.0625 C4.7575 1.7325 6.0775 1.4025 7.4375 1.0625 C6.4475 1.5575 6.4475 1.5575 5.4375 2.0625 C5.4375 2.7225 5.4375 3.3825 5.4375 4.0625 C6.0975 4.3925 6.7575 4.7225 7.4375 5.0625 C6.344375 5.041875 5.25125 5.02125 4.125 5 C0.49365809 4.87705548 0.49365809 4.87705548 -2.5625 6.0625 C-2.94468767 4.40635343 -3.27645102 2.73792976 -3.5625 1.0625 C-2.5625 0.0625 -2.5625 0.0625 0 0 Z " fill="#9DA0A4" transform="translate(426.5625,16.9375)"/>
<path d="M0 0 C2.38564077 0.57584432 4.66682784 1.22227595 7 2 C7.33 1.34 7.66 0.68 8 0 C9 1 9 1 9.09765625 2.84765625 C9.04882812 5.92382812 9.04882812 5.92382812 9 9 C8.34 9 7.68 9 7 9 C6.979375 8.401875 6.95875 7.80375 6.9375 7.1875 C6.09543384 4.56685398 6.09543384 4.56685398 2.4375 3.25 C1.303125 2.8375 0.16875 2.425 -1 2 C-0.67 1.34 -0.34 0.68 0 0 Z " fill="#131313" transform="translate(215,83)"/>
<path d="M0 0 C2.31 0 4.62 0 7 0 C7 1.65 7 3.3 7 5 C4.69 5 2.38 5 0 5 C0 3.35 0 1.7 0 0 Z " fill="#DCDCDE" transform="translate(360,323)"/>
<path d="M0 0 C1.32 0 2.64 0 4 0 C4 2.64 4 5.28 4 8 C2.35 8 0.7 8 -1 8 C-1 5.16032769 -0.59732819 2.76264289 0 0 Z " fill="#9D9B9B" transform="translate(146,147)"/>
<path d="M0 0 C0.33 1.32 0.66 2.64 1 4 C1.66 4 2.32 4 3 4 C3 2.68 3 1.36 3 0 C4.65 0 6.3 0 8 0 C7.67 1.98 7.34 3.96 7 6 C5.00045254 6.04254356 2.99958364 6.04080783 1 6 C0 5 0 5 -0.0625 2.4375 C-0.041875 1.633125 -0.02125 0.82875 0 0 Z " fill="#A7A6A6" transform="translate(144,119)"/>
<path d="M0 0 C0.66 0 1.32 0 2 0 C2 2.64 2 5.28 2 8 C0.68 8 -0.64 8 -2 8 C-2 6.35 -2 4.7 -2 3 C-2.66 3 -3.32 3 -4 3 C-4.33 4.32 -4.66 5.64 -5 7 C-5 5.35 -5 3.7 -5 2 C-3.68 2 -2.36 2 -1 2 C-0.67 1.34 -0.34 0.68 0 0 Z " fill="#9D9D9D" transform="translate(262,117)"/>
<path d="M0 0 C1.32 0 2.64 0 4 0 C4 0.66 4 1.32 4 2 C4.66 2 5.32 2 6 2 C5.67 2.99 5.34 3.98 5 5 C4.77548542 7.22574335 4.59217122 9.45581519 4.4375 11.6875 C4.35371094 12.86699219 4.26992188 14.04648438 4.18359375 15.26171875 C4.12300781 16.16535156 4.06242187 17.06898437 4 18 C3.67 18 3.34 18 3 18 C3 13.71 3 9.42 3 5 C2.01 4.67 1.02 4.34 0 4 C0 2.68 0 1.36 0 0 Z " fill="#787878" transform="translate(288,76)"/>
<path d="M0 0 C2.475 0.495 2.475 0.495 5 1 C5 2.65 5 4.3 5 6 C3.35 6.33 1.7 6.66 0 7 C0 4.69 0 2.38 0 0 Z " fill="#CCCCCE" transform="translate(156,321)"/>
<path d="M0 0 C0.66 0 1.32 0 2 0 C2 2.64 2 5.28 2 8 C0.35 7.67 -1.3 7.34 -3 7 C-2.67 5.35 -2.34 3.7 -2 2 C-1.34 2 -0.68 2 0 2 C0 1.34 0 0.68 0 0 Z " fill="#9E9E9E" transform="translate(250,160)"/>
<path d="M0 0 C0.66 0 1.32 0 2 0 C2 0.66 2 1.32 2 2 C2.99 2.33 3.98 2.66 5 3 C4.67 4.65 4.34 6.3 4 8 C2.68 8 1.36 8 0 8 C0 5.36 0 2.72 0 0 Z " fill="#A2A0A0" transform="translate(169,160)"/>
<path d="M0 0 C0.33 0.99 0.66 1.98 1 3 C1.99 3 2.98 3 4 3 C3.67 6.63 3.34 10.26 3 14 C2.67 14 2.34 14 2 14 C1.32741333 11.66836622 0.66152556 9.3347961 0 7 C-0.226875 6.2575 -0.45375 5.515 -0.6875 4.75 C-1 3 -1 3 0 0 Z " fill="#111111" transform="translate(252,76)"/>
<path d="M0 0 C0.99 0.33 1.98 0.66 3 1 C5.63804589 0.60602665 5.63804589 0.60602665 8 0 C8 1.65 8 3.3 8 5 C7.67 4.01 7.34 3.02 7 2 C6.34 2 5.68 2 5 2 C5 2.99 5 3.98 5 5 C3.02 5 1.04 5 -1 5 C-0.67 3.35 -0.34 1.7 0 0 Z " fill="#9FA2A6" transform="translate(369,17)"/>
<path d="M0 0 C2.0625 0.4375 2.0625 0.4375 4 1 C4 2.65 4 4.3 4 6 C2.0625 6.5625 2.0625 6.5625 0 7 C-1 6 -1 6 -1.125 3.5 C-1 1 -1 1 0 0 Z " fill="#C0C1C4" transform="translate(146,302)"/>
<path d="M0 0 C0.33 2.31 0.66 4.62 1 7 C0.01 7 -0.98 7 -2 7 C-2 5.68 -2 4.36 -2 3 C-2.66 3 -3.32 3 -4 3 C-4 4.32 -4 5.64 -4 7 C-4.66 7 -5.32 7 -6 7 C-6 5.02 -6 3.04 -6 1 C-3.92446352 0.4465236 -2.15634036 0 0 0 Z " fill="#A8A8A8" transform="translate(228,132)"/>
<path d="M0 0 C0.33 0.66 0.66 1.32 1 2 C1.66 1.67 2.32 1.34 3 1 C2.67 2.65 2.34 4.3 2 6 C-1.11257569 6 -3.10765685 5.82638376 -6 5 C-5.34 4.34 -4.68 3.68 -4 3 C-4.66 2.34 -5.32 1.68 -6 1 C-3.92446352 0.4465236 -2.15634036 0 0 0 Z " fill="#B4B4B4" transform="translate(316,147)"/>
<path d="M0 0 C0.33 0.66 0.66 1.32 1 2 C3.02463255 2.65213292 3.02463255 2.65213292 5 3 C2.16569547 6.2542015 0.31392226 7.5206753 -4 8 C-3.34 7.67 -2.68 7.34 -2 7 C-2 5.35 -2 3.7 -2 2 C-1.34 2 -0.68 2 0 2 C0 1.34 0 0.68 0 0 Z " fill="#111111" transform="translate(329,147)"/>
<path d="M0 0 C0.66 0.33 1.32 0.66 2 1 C1.67 1.66 1.34 2.32 1 3 C-0.32 3 -1.64 3 -3 3 C-3 4.65 -3 6.3 -3 8 C-4.98 8 -6.96 8 -9 8 C-8.67 7.01 -8.34 6.02 -8 5 C-8 5.66 -8 6.32 -8 7 C-7.34 7 -6.68 7 -6 7 C-6 6.01 -6 5.02 -6 4 C-6.66 3.67 -7.32 3.34 -8 3 C-5.36 2.67 -2.72 2.34 0 2 C0 1.34 0 0.68 0 0 Z " fill="#8B8989" transform="translate(176,145)"/>
<path d="M0 0 C0.66 0 1.32 0 2 0 C2 0.66 2 1.32 2 2 C2.99 2.33 3.98 2.66 5 3 C5 4.65 5 6.3 5 8 C3.35 8 1.7 8 0 8 C0 5.36 0 2.72 0 0 Z " fill="#909090" transform="translate(251,131)"/>
<path d="M0 0 C0.99 0 1.98 0 3 0 C3 1.98 3 3.96 3 6 C1.02 6 -0.96 6 -3 6 C-3 4.68 -3 3.36 -3 2 C-2.01 2 -1.02 2 0 2 C0 1.34 0 0.68 0 0 Z " fill="#ABADB1" transform="translate(402,16)"/>
<path d="M0 0 C0.33 0 0.66 0 1 0 C1 2.31 1 4.62 1 7 C-0.98 7 -2.96 7 -5 7 C-5 5.02 -5 3.04 -5 1 C-4.34 1 -3.68 1 -3 1 C-3 1.66 -3 2.32 -3 3 C-2.34 3 -1.68 3 -1 3 C-0.67 2.01 -0.34 1.02 0 0 Z " fill="#BCBCBE" transform="translate(138,321)"/>
<path d="M0 0 C0.66 0 1.32 0 2 0 C2.66 0.99 3.32 1.98 4 3 C5.32 2.67 6.64 2.34 8 2 C7.67 3.32 7.34 4.64 7 6 C4.36 6 1.72 6 -1 6 C-0.67 4.02 -0.34 2.04 0 0 Z " fill="#9D9D9E" transform="translate(134,281)"/>
<path d="M0 0 C1.32 0.66 2.64 1.32 4 2 C3.34 3.65 2.68 5.3 2 7 C0.68 6.34 -0.64 5.68 -2 5 C-1.125 1.125 -1.125 1.125 0 0 Z " fill="#9D9D9D" transform="translate(261,147)"/>
<path d="M0 0 C0.66 0 1.32 0 2 0 C2 0.66 2 1.32 2 2 C2.99 2.33 3.98 2.66 5 3 C5 4.65 5 6.3 5 8 C3.35 8 1.7 8 0 8 C0 5.36 0 2.72 0 0 Z " fill="#A7A7A7" transform="translate(211,131)"/>
<path d="M0 0 C1.9375 0.3125 1.9375 0.3125 4 1 C4.33 1.99 4.66 2.98 5 4 C4.67 4.66 4.34 5.32 4 6 C2.35 5.67 0.7 5.34 -1 5 C-0.67 3.35 -0.34 1.7 0 0 Z " fill="#AAADB0" transform="translate(64,17)"/>
<path d="M0 0 C2.33294775 -0.04241723 4.66702567 -0.04092937 7 0 C8 1 8 1 8.09765625 3.06640625 C8.08605469 3.89011719 8.07445312 4.71382813 8.0625 5.5625 C8.05347656 6.38878906 8.04445313 7.21507812 8.03515625 8.06640625 C8.02355469 8.70449219 8.01195312 9.34257812 8 10 C7.67 10 7.34 10 7 10 C7 7.69 7 5.38 7 3 C4.36 3 1.72 3 -1 3 C-0.67 2.01 -0.34 1.02 0 0 Z " fill="#757576" transform="translate(360,319)"/>
<path d="M0 0 C0.66 0 1.32 0 2 0 C2 0.66 2 1.32 2 2 C2.99 2.33 3.98 2.66 5 3 C5 4.65 5 6.3 5 8 C3.35 8 1.7 8 0 8 C0 5.36 0 2.72 0 0 Z " fill="#AAAAA9" transform="translate(198,160)"/>
<path d="M0 0 C1.32 0.33 2.64 0.66 4 1 C3.67 2.65 3.34 4.3 3 6 C0.69 6.33 -1.62 6.66 -4 7 C-4.66 6.01 -5.32 5.02 -6 4 C-3.03 4.495 -3.03 4.495 0 5 C0 3.35 0 1.7 0 0 Z " fill="#6D6D6D" transform="translate(362,119)"/>
<path d="M0 0 C-1.32 0.33 -2.64 0.66 -4 1 C-4 5.62 -4 10.24 -4 15 C-4.33 15 -4.66 15 -5 15 C-5.33 10.38 -5.66 5.76 -6 1 C-6.99 0.67 -7.98 0.34 -9 0 C-5.67465243 -1.10844919 -3.37817425 -0.84454356 0 0 Z " fill="#040404" transform="translate(292,79)"/>
<path d="M0 0 C2.0625 0.4375 2.0625 0.4375 4 1 C3.67 2.65 3.34 4.3 3 6 C1.68 6 0.36 6 -1 6 C-1.042721 4.33388095 -1.04063832 2.66617115 -1 1 C-0.67 0.67 -0.34 0.34 0 0 Z " fill="#B2B2B2" transform="translate(281,353)"/>
<path d="M0 0 C0.99 0.33 1.98 0.66 3 1 C3.33 2.98 3.66 4.96 4 7 C2.68 6.34 1.36 5.68 0 5 C0 5.66 0 6.32 0 7 C-0.66 7 -1.32 7 -2 7 C-1.125 1.125 -1.125 1.125 0 0 Z " fill="#D1D1D1" transform="translate(263,352)"/>
<path d="M0 0 C2.475 0.495 2.475 0.495 5 1 C4.67 2.65 4.34 4.3 4 6 C2.68 6 1.36 6 0 6 C0 4.02 0 2.04 0 0 Z " fill="#B1B3B6" transform="translate(125,262)"/>
<path d="M0 0 C2.31 0 4.62 0 7 0 C6.67 1.65 6.34 3.3 6 5 C4.35 5 2.7 5 1 5 C0.67 3.35 0.34 1.7 0 0 Z " fill="#B8B8B8" transform="translate(287,148)"/>
<path d="M0 0 C1.65 0 3.3 0 5 0 C5 0.66 5 1.32 5 2 C4.01 2 3.02 2 2 2 C2 2.99 2 3.98 2 5 C2.99 5.33 3.98 5.66 5 6 C4.01 6 3.02 6 2 6 C2 6.66 2 7.32 2 8 C0.68 7.34 -0.64 6.68 -2 6 C-1.34 6 -0.68 6 0 6 C0 4.02 0 2.04 0 0 Z " fill="#8E8E8E" transform="translate(244,147)"/>
<path d="M0 0 C0.99 0.33 1.98 0.66 3 1 C2.67 1.66 2.34 2.32 2 3 C1.34 2.67 0.68 2.34 0 2 C0 2.99 0 3.98 0 5 C0.99 4.67 1.98 4.34 3 4 C2.67 4.99 2.34 5.98 2 7 C0.02 7 -1.96 7 -4 7 C-3.6875 4.625 -3.6875 4.625 -3 2 C-2.01 1.34 -1.02 0.68 0 0 Z " fill="#8F8C8C" transform="translate(127,147)"/>
<path d="M0 0 C1.98 0.495 1.98 0.495 4 1 C4 2.65 4 4.3 4 6 C2.35 6 0.7 6 -1 6 C-0.67 4.02 -0.34 2.04 0 0 Z " fill="#949494" transform="translate(274,147)"/>
<path d="M0 0 C1.2065625 0.0309375 1.2065625 0.0309375 2.4375 0.0625 C2.4375 1.7125 2.4375 3.3625 2.4375 5.0625 C0.7875 5.3925 -0.8625 5.7225 -2.5625 6.0625 C-2.94468767 4.40635343 -3.27645102 2.73792976 -3.5625 1.0625 C-2.5625 0.0625 -2.5625 0.0625 0 0 Z " fill="#A5A7AB" transform="translate(346.5625,16.9375)"/>
<path d="M0 0 C1.98 0.495 1.98 0.495 4 1 C3.67 2.65 3.34 4.3 3 6 C1.68 5.67 0.36 5.34 -1 5 C-0.67 3.35 -0.34 1.7 0 0 Z " fill="#999999" transform="translate(228,162)"/>
<path d="M0 0 C0.66 0 1.32 0 2 0 C3.76462683 3.08809695 4 4.23312136 4 8 C2.68 8 1.36 8 0 8 C0 5.36 0 2.72 0 0 Z " fill="#939191" transform="translate(175,160)"/>
<path d="M0 0 C1.98 0.495 1.98 0.495 4 1 C3.67 2.65 3.34 4.3 3 6 C1.68 5.67 0.36 5.34 -1 5 C-0.67 3.35 -0.34 1.7 0 0 Z " fill="#9E9E9E" transform="translate(372,133)"/>
<path d="M0 0 C1.98 0.495 1.98 0.495 4 1 C3.67 2.65 3.34 4.3 3 6 C1.68 5.67 0.36 5.34 -1 5 C-0.67 3.35 -0.34 1.7 0 0 Z " fill="#9E9D9D" transform="translate(175,133)"/>
<path d="M0 0 C1.98 0.495 1.98 0.495 4 1 C3.67 2.65 3.34 4.3 3 6 C1.68 5.67 0.36 5.34 -1 5 C-0.67 3.35 -0.34 1.7 0 0 Z " fill="#9F9D9D" transform="translate(127,133)"/>
<path d="M0 0 C2.31 0 4.62 0 7 0 C7 1.98 7 3.96 7 6 C6.67 4.68 6.34 3.36 6 2 C5.34 2 4.68 2 4 2 C3.67 3.32 3.34 4.64 3 6 C3 4.68 3 3.36 3 2 C2.34 2 1.68 2 1 2 C0.67 3.32 0.34 4.64 0 6 C0 4.02 0 2.04 0 0 Z " fill="#BFBDBD" transform="translate(136,133)"/>
<path d="M0 0 C0.33 0.66 0.66 1.32 1 2 C1.66 2 2.32 2 3 2 C2.67 5.63 2.34 9.26 2 13 C1.34 13 0.68 13 0 13 C0 8.71 0 4.42 0 0 Z " fill="#FAFAFA" transform="translate(295,81)"/>
<path d="M0 0 C0.78375 0.04125 1.5675 0.0825 2.375 0.125 C2.375 1.445 2.375 2.765 2.375 4.125 C0.725 4.785 -0.925 5.445 -2.625 6.125 C-2.625 5.135 -2.625 4.145 -2.625 3.125 C-3.285 2.795 -3.945 2.465 -4.625 2.125 C-2.625 0.125 -2.625 0.125 0 0 Z " fill="#E3E3E3" transform="translate(21.625,21.875)"/>
<path d="M0 0 C0.66 0 1.32 0 2 0 C4.125 4.625 4.125 4.625 3 8 C3 7.34 3 6.68 3 6 C1.68 6 0.36 6 -1 6 C-1.33 6.66 -1.66 7.32 -2 8 C-1.125 2.25 -1.125 2.25 0 0 Z " fill="#8D9196" transform="translate(45,15)"/>
<path d="M0 0 C2.475 0.495 2.475 0.495 5 1 C5 2.65 5 4.3 5 6 C3.35 6 1.7 6 0 6 C0 4.02 0 2.04 0 0 Z " fill="#C3C3C3" transform="translate(202,353)"/>
<path d="M0 0 C2.475 0.495 2.475 0.495 5 1 C5 2.65 5 4.3 5 6 C3.35 6 1.7 6 0 6 C0 4.02 0 2.04 0 0 Z " fill="#C6C6C6" transform="translate(301,353)"/>
<path d="M0 0 C0.66 0 1.32 0 2 0 C2 0.99 2 1.98 2 3 C0.68 3.33 -0.64 3.66 -2 4 C-2 5.32 -2 6.64 -2 8 C-2.99 7.67 -3.98 7.34 -5 7 C-4.67 5.35 -4.34 3.7 -4 2 C-2.68 2 -1.36 2 0 2 C0 1.34 0 0.68 0 0 Z " fill="#A9A9A9" transform="translate(247,351)"/>
<path d="M0 0 C4.75 -0.125 4.75 -0.125 7 1 C7 2.32 7 3.64 7 5 C5.35 5 3.7 5 2 5 C1.34 3.35 0.68 1.7 0 0 Z " fill="#B8B7B7" transform="translate(201,148)"/>
<path d="M0 0 C2.475 0.495 2.475 0.495 5 1 C5 2.65 5 4.3 5 6 C3.35 6 1.7 6 0 6 C0 4.02 0 2.04 0 0 Z " fill="#ACAAAA" transform="translate(117,133)"/>
<path d="M0 0 C0.99 0.33 1.98 0.66 3 1 C1.515 4.96 1.515 4.96 0 9 C-0.66 9 -1.32 9 -2 9 C-2.125 5.625 -2.125 5.625 -2 2 C-1.34 1.34 -0.68 0.68 0 0 Z " fill="#E9E9E9" transform="translate(243,81)"/>
<path d="M0 0 C1.2065625 0.0309375 1.2065625 0.0309375 2.4375 0.0625 C2.4375 1.7125 2.4375 3.3625 2.4375 5.0625 C0.7875 5.0625 -0.8625 5.0625 -2.5625 5.0625 C-3.125 3.125 -3.125 3.125 -3.5625 1.0625 C-2.5625 0.0625 -2.5625 0.0625 0 0 Z " fill="#B8BABC" transform="translate(161.5625,303.9375)"/>
<path d="M0 0 C1.32 0 2.64 0 4 0 C4 1.98 4 3.96 4 6 C2.68 6 1.36 6 0 6 C0 4.02 0 2.04 0 0 Z " fill="#ADADAD" transform="translate(204,162)"/>
<path d="M0 0 C1.32 0 2.64 0 4 0 C4 1.98 4 3.96 4 6 C2.68 6 1.36 6 0 6 C0 4.02 0 2.04 0 0 Z " fill="#ADADAD" transform="translate(217,133)"/>
<path d="M0 0 C1.32 0 2.64 0 4 0 C4 1.98 4 3.96 4 6 C2.35 5.67 0.7 5.34 -1 5 C-0.67 3.35 -0.34 1.7 0 0 Z " fill="#ACABAB" transform="translate(199,119)"/>
<path d="M0 0 C2.475 0.495 2.475 0.495 5 1 C5.33 2.65 5.66 4.3 6 6 C5.01 5.01 4.02 4.02 3 3 C3 4.32 3 5.64 3 7 C2.01 6.67 1.02 6.34 0 6 C0 4.02 0 2.04 0 0 Z " fill="#B3B3B3" transform="translate(243,118)"/>
<path d="M0 0 C1.98 0 3.96 0 6 0 C6 0.99 6 1.98 6 3 C5.34 3 4.68 3 4 3 C4 4.65 4 6.3 4 8 C3.34 8 2.68 8 2 8 C2 5.69 2 3.38 2 1 C1.34 0.67 0.68 0.34 0 0 Z " fill="#A9ACAF" transform="translate(69,15)"/>
<path d="M0 0 C1.32 0.33 2.64 0.66 4 1 C3.67 2.32 3.34 3.64 3 5 C2.01 5 1.02 5 0 5 C0 4.34 0 3.68 0 3 C-0.99 3.33 -1.98 3.66 -3 4 C-3 3.01 -3 2.02 -3 1 C-2.01 1.33 -1.02 1.66 0 2 C0 1.34 0 0.68 0 0 Z " fill="#C3C4C7" transform="translate(173,263)"/>
<path d="M0 0 C0.66 0 1.32 0 2 0 C2 2.97 2 5.94 2 9 C0.68 8.67 -0.64 8.34 -2 8 C-1.34 5.36 -0.68 2.72 0 0 Z " fill="#717171" transform="translate(329,160)"/>
<path d="M0 0 C1.32 0 2.64 0 4 0 C5.2077558 3.62326739 4.54311128 4.64146369 3 8 C2.34 8 1.68 8 1 8 C0.67 5.36 0.34 2.72 0 0 Z " fill="#ADADAD" transform="translate(255,162)"/>
<path d="M0 0 C1.32 0 2.64 0 4 0 C5.2077558 3.62326739 4.54311128 4.64146369 3 8 C2.34 8 1.68 8 1 8 C0.67 5.36 0.34 2.72 0 0 Z " fill="#ADACAC" transform="translate(182,133)"/>
<path d="M0 0 C2.97 0 5.94 0 9 0 C8.67 0.66 8.34 1.32 8 2 C6.68 2 5.36 2 4 2 C4 3.98 4 5.96 4 8 C3.67 8 3.34 8 3 8 C3 6.02 3 4.04 3 2 C2.01 2 1.02 2 0 2 C0 1.34 0 0.68 0 0 Z " fill="#9F9F9F" transform="translate(317,131)"/>
<path d="M0 0 C1.65 0 3.3 0 5 0 C4.1875 3.4375 4.1875 3.4375 3 7 C2.01 7.33 1.02 7.66 0 8 C0 5.36 0 2.72 0 0 Z " fill="#ADADAD" transform="translate(235,119)"/>
<path d="M0 0 C0.66 0.33 1.32 0.66 2 1 C1.2884375 1.5878125 1.2884375 1.5878125 0.5625 2.1875 C-1.35179633 4.40808374 -1.61266988 6.13375709 -2 9 C-2.66 9 -3.32 9 -4 9 C-4 6.69 -4 4.38 -4 2 C-2.125 0.9375 -2.125 0.9375 0 0 Z " fill="#EBEBEB" transform="translate(34,17)"/>
<path d="M0 0 C1.65 0.33 3.3 0.66 5 1 C4.01 1.495 4.01 1.495 3 2 C3 2.66 3 3.32 3 4 C3.66 4.33 4.32 4.66 5 5 C3.02 5 1.04 5 -1 5 C-0.67 3.35 -0.34 1.7 0 0 Z " fill="#B4B6B9" transform="translate(144,222)"/>
<path d="M0 0 C1.65 0 3.3 0 5 0 C5.33 1.65 5.66 3.3 6 5 C4.02 5 2.04 5 0 5 C0 3.35 0 1.7 0 0 Z " fill="#AAADB0" transform="translate(136,222)"/>
<path d="M0 0 C1.32 0 2.64 0 4 0 C4 1.98 4 3.96 4 6 C2.68 6 1.36 6 0 6 C0 4.02 0 2.04 0 0 Z " fill="#A6A6A6" transform="translate(290,162)"/>
<path d="M0 0 C0.99 0.33 1.98 0.66 3 1 C3 2.65 3 4.3 3 6 C1.68 6 0.36 6 -1 6 C-1.042721 4.33388095 -1.04063832 2.66617115 -1 1 C-0.67 0.67 -0.34 0.34 0 0 Z " fill="#ABABAB" transform="translate(252,147)"/>
<path d="M0 0 C2.475 0.99 2.475 0.99 5 2 C5 1.34 5 0.68 5 0 C5.66 0 6.32 0 7 0 C7 1.65 7 3.3 7 5 C4.69 4.34 2.38 3.68 0 3 C0 2.01 0 1.02 0 0 Z " fill="#4C4C4C" transform="translate(227,149)"/>
<path d="M0 0 C0.99 0.33 1.98 0.66 3 1 C3 2.65 3 4.3 3 6 C1.35 6 -0.3 6 -2 6 C-1.34 4.02 -0.68 2.04 0 0 Z " fill="#B3B2B1" transform="translate(155,147)"/>
<path d="M0 0 C0.99 0 1.98 0 3 0 C4 3 4 3 3 6 C1.68 6 0.36 6 -1 6 C-1.042721 4.33388095 -1.04063832 2.66617115 -1 1 C-0.67 0.67 -0.34 0.34 0 0 Z " fill="#ACACAC" transform="translate(367,147)"/>
<path d="M0 0 C1.32 0 2.64 0 4 0 C4 0.66 4 1.32 4 2 C3.01 2 2.02 2 1 2 C1 2.66 1 3.32 1 4 C1.99 4 2.98 4 4 4 C4 4.66 4 5.32 4 6 C2.35 5.67 0.7 5.34 -1 5 C-0.67 3.35 -0.34 1.7 0 0 Z " fill="#A7A7A7" transform="translate(266,133)"/>
<path d="M0 0 C1.98 0.495 1.98 0.495 4 1 C3.67 2.65 3.34 4.3 3 6 C1.68 5.67 0.36 5.34 -1 5 C-0.67 3.35 -0.34 1.7 0 0 Z " fill="#B4B4B4" transform="translate(307,119)"/>
<path d="M0 0 C2 3 2 3 2 7 C1.01 7 0.02 7 -1 7 C-1 5.68 -1 4.36 -1 3 C-1.66 3 -2.32 3 -3 3 C-3.33 4.32 -3.66 5.64 -4 7 C-4 5.35 -4 3.7 -4 2 C-2.68 1.34 -1.36 0.68 0 0 Z " fill="#B5B5B5" transform="translate(382,117)"/>
<path d="M0 0 C0.66 0 1.32 0 2 0 C2.33 0.66 2.66 1.32 3 2 C3.66 1.67 4.32 1.34 5 1 C5 2.65 5 4.3 5 6 C3.33333333 6 1.66666667 6 0 6 C0 4.02 0 2.04 0 0 Z " fill="#A1A4A8" transform="translate(125,221)"/>
<path d="M0 0 C1.32 0 2.64 0 4 0 C4 2.64 4 5.28 4 8 C3.67 8 3.34 8 3 8 C2.67 6.35 2.34 4.7 2 3 C1.67 4.65 1.34 6.3 1 8 C0.67 8 0.34 8 0 8 C-1.125 2.25 -1.125 2.25 0 0 Z " fill="#C0C0C0" transform="translate(236,160)"/>
<path d="M0 0 C0.66 0 1.32 0 2 0 C2 2.64 2 5.28 2 8 C-0.475 7.01 -0.475 7.01 -3 6 C-2.01 5.67 -1.02 5.34 0 5 C-0.33 4.01 -0.66 3.02 -1 2 C-0.67 1.34 -0.34 0.68 0 0 Z " fill="#808080" transform="translate(363,146)"/>
<path d="M0 0 C0.66 0 1.32 0 2 0 C2 2.64 2 5.28 2 8 C1.01 8 0.02 8 -1 8 C-0.67 5.36 -0.34 2.72 0 0 Z " fill="#929292" transform="translate(276,131)"/>
<path d="M0 0 C2.475 0.495 2.475 0.495 5 1 C5 2.65 5 4.3 5 6 C4.34 6 3.68 6 3 6 C3 4.68 3 3.36 3 2 C2.34 2 1.68 2 1 2 C0.67 3.32 0.34 4.64 0 6 C0 4.02 0 2.04 0 0 Z " fill="#B2B2B2" transform="translate(243,133)"/>
<path d="M0 0 C2.475 0.495 2.475 0.495 5 1 C5 2.65 5 4.3 5 6 C4.34 6 3.68 6 3 6 C3 4.68 3 3.36 3 2 C2.34 2 1.68 2 1 2 C0.67 3.32 0.34 4.64 0 6 C0 4.02 0 2.04 0 0 Z " fill="#AFAEAE" transform="translate(161,133)"/>
<path d="M0 0 C1.32 0 2.64 0 4 0 C3.67 1.98 3.34 3.96 3 6 C1.68 5.34 0.36 4.68 -1 4 C-0.67 2.68 -0.34 1.36 0 0 Z " fill="#B4B4B4" transform="translate(162,119)"/>
<path d="M0 0 C1.9375 0.6875 1.9375 0.6875 4 2 C4.75 4.625 4.75 4.625 5 7 C3.68 7 2.36 7 1 7 C0.67 4.69 0.34 2.38 0 0 Z " fill="#858585" transform="translate(317,118)"/>
<path d="M0 0 C0.33 0.99 0.66 1.98 1 3 C1.99 3 2.98 3 4 3 C3.67 4.32 3.34 5.64 3 7 C1.35 7.33 -0.3 7.66 -2 8 C-1.34 5.36 -0.68 2.72 0 0 Z " fill="#BABABA" transform="translate(274,82)"/>
<path d="M0 0 C1.65 0 3.3 0 5 0 C4.01 0.33 3.02 0.66 2 1 C2 1.66 2 2.32 2 3 C2.99 3.33 3.98 3.66 5 4 C4.01 4 3.02 4 2 4 C2 4.99 2 5.98 2 7 C1.34 7 0.68 7 0 7 C0 4.69 0 2.38 0 0 Z " fill="#D6D6D6" transform="translate(194,352)"/>
<path d="M0 0 C0 1.65 0 3.3 0 5 C-1.98 5 -3.96 5 -6 5 C-6 3.68 -6 2.36 -6 1 C-3.92446352 0.4465236 -2.15634036 0 0 0 Z " fill="#A3A5A9" transform="translate(157,303)"/>
<path d="M0 0 C0.66 0.33 1.32 0.66 2 1 C1.67 2.32 1.34 3.64 1 5 C-0.65 5 -2.3 5 -4 5 C-3.6875 3.0625 -3.6875 3.0625 -3 1 C-2.01 0.67 -1.02 0.34 0 0 Z " fill="#A6A6A7" transform="translate(185,282)"/>
<path d="M0 0 C-1.32 1.32 -2.64 2.64 -4 4 C-4.33 2.68 -4.66 1.36 -5 0 C-5.66 0 -6.32 0 -7 0 C-7.33 0.99 -7.66 1.98 -8 3 C-8 1.68 -8 0.36 -8 -1 C-3.375 -2.25 -3.375 -2.25 0 0 Z " fill="#9EA1A5" transform="translate(141,264)"/>
<path d="M0 0 C0.99 0.33 1.98 0.66 3 1 C2.67 2.32 2.34 3.64 2 5 C1.34 5 0.68 5 0 5 C-0.33 5.66 -0.66 6.32 -1 7 C-1.66 6.67 -2.32 6.34 -3 6 C-1.125 1.125 -1.125 1.125 0 0 Z " fill="#726D6D" transform="translate(118,147)"/>
<path d="M0 0 C1.32 0 2.64 0 4 0 C4 2.31 4 4.62 4 7 C3.34 7 2.68 7 2 7 C2 5.68 2 4.36 2 3 C1.34 3 0.68 3 0 3 C0 2.01 0 1.02 0 0 Z " fill="#999999" transform="translate(215,146)"/>
<path d="M0 0 C0.99 0 1.98 0 3 0 C3 0.66 3 1.32 3 2 C2.01 2 1.02 2 0 2 C0 2.66 0 3.32 0 4 C0.99 4 1.98 4 3 4 C3 4.66 3 5.32 3 6 C1.35 5.67 -0.3 5.34 -2 5 C-1.125 1.125 -1.125 1.125 0 0 Z " fill="#ABABAB" transform="translate(207,133)"/>
<path d="M0 0 C0.66 0 1.32 0 2 0 C2 2.64 2 5.28 2 8 C1.01 7.67 0.02 7.34 -1 7 C-0.67 4.69 -0.34 2.38 0 0 Z " fill="#807E7E" transform="translate(152,131)"/>
<path d="M0 0 C3 0 3 0 5 1 C4.01 2.98 3.02 4.96 2 7 C1.34 6.67 0.68 6.34 0 6 C0 4.02 0 2.04 0 0 Z " fill="#B8B6B6" transform="translate(133,119)"/>
<path d="M0 0 C0.66 0 1.32 0 2 0 C2 0.99 2 1.98 2 3 C2.66 3 3.32 3 4 3 C4 3.99 4 4.98 4 6 C3.01 6.33 2.02 6.66 1 7 C1.99 7.33 2.98 7.66 4 8 C2.68 8 1.36 8 0 8 C0 5.36 0 2.72 0 0 Z " fill="#6C6C6C" transform="translate(292,117)"/>
<path d="M0 0 C0.33 0.66 0.66 1.32 1 2 C2.32 2 3.64 2 5 2 C5 3.32 5 4.64 5 6 C3.35 5.67 1.7 5.34 0 5 C0 3.35 0 1.7 0 0 Z " fill="#B6B9BC" transform="translate(393,16)"/>
<path d="M0 0 C0.99 0.33 1.98 0.66 3 1 C3 2.65 3 4.3 3 6 C1.68 6 0.36 6 -1 6 C-1.042721 4.33388095 -1.04063832 2.66617115 -1 1 C-0.67 0.67 -0.34 0.34 0 0 Z " fill="#CECECE" transform="translate(269,353)"/>
<path d="M0 0 C0.66 0 1.32 0 2 0 C2 2.64 2 5.28 2 8 C1.34 8 0.68 8 0 8 C-0.66 6.02 -1.32 4.04 -2 2 C-1.34 2 -0.68 2 0 2 C0 1.34 0 0.68 0 0 Z " fill="#A5A5A5" transform="translate(298,351)"/>
<path d="M0 0 C0.66 0 1.32 0 2 0 C2.33 1.98 2.66 3.96 3 6 C2.01 6.33 1.02 6.66 0 7 C-0.93423645 3.98968256 -1.04449911 3.13349732 0 0 Z " fill="#B4B4B4" transform="translate(229,352)"/>
<path d="M0 0 C0.99 0 1.98 0 3 0 C3 1.32 3 2.64 3 4 C2.34 4 1.68 4 1 4 C1 4.66 1 5.32 1 6 C0.34 6 -0.32 6 -1 6 C-1.042721 4.33388095 -1.04063832 2.66617115 -1 1 C-0.67 0.67 -0.34 0.34 0 0 Z " fill="#ADAFB2" transform="translate(126,302)"/>
<path d="M0 0 C0.66 0 1.32 0 2 0 C2.33 1.98 2.66 3.96 3 6 C1.68 6 0.36 6 -1 6 C-1.042721 4.33388095 -1.04063832 2.66617115 -1 1 C-0.67 0.67 -0.34 0.34 0 0 Z " fill="#B1B1B2" transform="translate(152,282)"/>
<path d="M0 0 C0.66 0 1.32 0 2 0 C2 2.64 2 5.28 2 8 C1.01 8.495 1.01 8.495 0 9 C-0.66 8.34 -1.32 7.68 -2 7 C-1.34 7 -0.68 7 0 7 C0 4.69 0 2.38 0 0 Z " fill="#74706F" transform="translate(136,146)"/>
<path d="M0 0 C3 0 3 0 5 1 C4.01 2.98 3.02 4.96 2 7 C1.34 6.67 0.68 6.34 0 6 C0 4.02 0 2.04 0 0 Z " fill="#BCBCBC" transform="translate(268,148)"/>
<path d="M0 0 C0.99 0 1.98 0 3 0 C2.67 0.66 2.34 1.32 2 2 C2.33 2.33 2.66 2.66 3 3 C3 3.99 3 4.98 3 6 C1.68 6 0.36 6 -1 6 C-1.042721 4.33388095 -1.04063832 2.66617115 -1 1 C-0.67 0.67 -0.34 0.34 0 0 Z " fill="#B2B2B1" transform="translate(170,133)"/>
<path d="M0 0 C2.89932357 2.39509338 3.50168276 4.31245243 4 8 C2.68 7.67 1.36 7.34 0 7 C0 4.69 0 2.38 0 0 Z " fill="#120C0C" transform="translate(130,117)"/>
<path d="M0 0 C0.45375 0.495 0.9075 0.99 1.375 1.5 C2.87635519 3.22609337 2.87635519 3.22609337 5 3 C5 3.99 5 4.98 5 6 C4.01 6 3.02 6 2 6 C1.67 6.66 1.34 7.32 1 8 C0.34 7.67 -0.32 7.34 -1 7 C-0.67 4.69 -0.34 2.38 0 0 Z " fill="#656565" transform="translate(222,117)"/>
<path d="M0 0 C1.32 0 2.64 0 4 0 C4.33 0.66 4.66 1.32 5 2 C4.0625 4.625 4.0625 4.625 3 7 C2.34 6.67 1.68 6.34 1 6 C0.375 2.9375 0.375 2.9375 0 0 Z " fill="#B9B9B9" transform="translate(346,119)"/>
<path d="M0 0 C0.66 0 1.32 0 2 0 C2 3.3 2 6.6 2 10 C0.04224922 7.06337384 -0.56073149 5.4262944 -1 2 C-0.67 1.34 -0.34 0.68 0 0 Z " fill="#282828" transform="translate(285,84)"/>
<path d="M0 0 C4.51720311 -0.36625971 4.51720311 -0.36625971 6.8125 1.375 C8 3 8 3 8 5 C4.20411134 4.45773019 2.52788007 2.79872437 0 0 Z " fill="#BCBCBC" transform="translate(214,80)"/>
<path d="M0 0 C0.99 0.33 1.98 0.66 3 1 C3 2.32 3 3.64 3 5 C2.01 5.33 1.02 5.66 0 6 C-0.38218767 4.34385343 -0.71395102 2.67542976 -1 1 C-0.67 0.67 -0.34 0.34 0 0 Z " fill="#A9A9AA" transform="translate(170,282)"/>
<path d="M0 0 C0.99 0.33 1.98 0.66 3 1 C3 2.32 3 3.64 3 5 C2.01 5.33 1.02 5.66 0 6 C-1.125 2.25 -1.125 2.25 0 0 Z " fill="#626262" transform="translate(346,146)"/>
<path d="M0 0 C0.66 0.33 1.32 0.66 2 1 C1.67 3.31 1.34 5.62 1 8 C0.34 8 -0.32 8 -1 8 C-1.625 5.125 -1.625 5.125 -2 2 C-1.34 1.34 -0.68 0.68 0 0 Z " fill="#B2AFAF" transform="translate(124,131)"/>
<path d="M0 0 C0.66 0 1.32 0 2 0 C2 2.64 2 5.28 2 8 C1.34 8 0.68 8 0 8 C-0.38063221 5.6739143 -0.71269945 3.33944736 -1 1 C-0.67 0.67 -0.34 0.34 0 0 Z " fill="#8D8D8D" transform="translate(254,117)"/>
<path d="M0 0 C0.99 0.33 1.98 0.66 3 1 C2.34 2.65 1.68 4.3 1 6 C0.01 5.67 -0.98 5.34 -2 5 C-2 3.68 -2 2.36 -2 1 C-1.34 0.67 -0.68 0.34 0 0 Z " fill="#828181" transform="translate(212,119)"/>
<path d="M0 0 C0.66 0 1.32 0 2 0 C2 2.64 2 5.28 2 8 C1.34 8 0.68 8 0 8 C-0.38063221 5.6739143 -0.71269945 3.33944736 -1 1 C-0.67 0.67 -0.34 0.34 0 0 Z " fill="#BBBEC1" transform="translate(83,15)"/>
<path d="M0 0 C2.64 0 5.28 0 8 0 C8 0.66 8 1.32 8 2 C7.01 2 6.02 2 5 2 C4.67 2.66 4.34 3.32 4 4 C2.68 3.67 1.36 3.34 0 3 C0 2.01 0 1.02 0 0 Z " fill="#757575" transform="translate(233,355)"/>
<path d="M0 0 C1.32 0 2.64 0 4 0 C4.33 1.32 4.66 2.64 5 4 C3.68 4 2.36 4 1 4 C0.67 2.68 0.34 1.36 0 0 Z " fill="#797979" transform="translate(215,120)"/>
<path d="M0 0 C1.98 0.495 1.98 0.495 4 1 C4 2.32 4 3.64 4 5 C2.35 5 0.7 5 -1 5 C-0.67 3.35 -0.34 1.7 0 0 Z " fill="#C4C4C4" transform="translate(278,119)"/>
<path d="M0 0 C0.66 0 1.32 0 2 0 C2.33 2.31 2.66 4.62 3 7 C2.01 7.33 1.02 7.66 0 8 C0 5.36 0 2.72 0 0 Z " fill="#929191" transform="translate(167,117)"/>
<path d="M0 0 C0.33 0 0.66 0 1 0 C1 1.98 1 3.96 1 6 C-0.32 6 -1.64 6 -3 6 C-3 5.01 -3 4.02 -3 3 C-2.34 3 -1.68 3 -1 3 C-0.67 2.01 -0.34 1.02 0 0 Z " fill="#EFEFEF" transform="translate(282,88)"/>
<path d="M0 0 C2.31 0.66 4.62 1.32 7 2 C6.67 2.66 6.34 3.32 6 4 C3.03824877 3.38722388 1.61941217 2.74627478 -1 1 C-0.67 0.67 -0.34 0.34 0 0 Z " fill="#1C1C1C" transform="translate(212,88)"/>
<path d="M0 0 C0.99 0.33 1.98 0.66 3 1 C3.33 1.99 3.66 2.98 4 4 C1.69 3.67 -0.62 3.34 -3 3 C-2.01 2.01 -1.02 1.02 0 0 Z " fill="#B2B4B7" transform="translate(473,18)"/>
<path d="M0 0 C0.99 0.33 1.98 0.66 3 1 C3 2.32 3 3.64 3 5 C1.68 5 0.36 5 -1 5 C-0.67 3.35 -0.34 1.7 0 0 Z " fill="#A6A9AC" transform="translate(448,17)"/>
<path d="M0 0 C0.99 0.33 1.98 0.66 3 1 C2 4 2 4 1 6 C0.34 6 -0.32 6 -1 6 C-1.042721 4.33388095 -1.04063832 2.66617115 -1 1 C-0.67 0.67 -0.34 0.34 0 0 Z " fill="#A9ABAE" transform="translate(407,16)"/>
</svg>
